M48
; DRILL file {KiCad (6.0.5-0)} date Saturday, 24 December 2022 at 01:00:11
; FORMAT={-:-/ absolute / metric / decimal}
; #@! TF.CreationDate,2022-12-24T01:00:11+09:00
; #@! TF.GenerationSoftware,Kicad,Pcbnew,(6.0.5-0)
; #@! TF.FileFunction,Plated,1,2,PTH
FMAT,2
METRIC
; #@! TA.AperFunction,Plated,PTH,ViaDrill
T1C0.400
%
G90
G05
T1
X110.36Y-115.925
X111.442Y-139.607
X112.835Y-125.48
X112.855Y-121.9
X113.767Y-133.482
X114.085Y-121.075
X115.042Y-134.607
X115.33Y-122.625
X116.342Y-132.682
X116.61Y-121.05
X117.567Y-134.607
X117.86Y-123.074
X118.817Y-132.308
X119.135Y-121.075
X119.46Y-127.69
X120.092Y-134.607
X120.41Y-123.524
X121.367Y-131.859
X121.66Y-121.1
X122.642Y-134.607
X122.96Y-123.973
X123.917Y-131.409
X124.235Y-121.075
X125.167Y-134.632
X125.485Y-124.423
X126.467Y-130.96
X126.76Y-121.075
X126.785Y-126.055
X127.742Y-134.657
X128.037Y-124.872
X128.967Y-130.51
X129.31Y-121.075
X130.242Y-134.632
X130.585Y-125.322
X131.517Y-130.061
X131.835Y-121.05
X132.707Y-129.067
X132.817Y-134.582
X134.117Y-129.611
X134.385Y-121.05
X135.317Y-134.582
X135.61Y-125.771
X136.607Y-135.662
X136.91Y-121.075
X137.007Y-129.067
X137.997Y-134.637
X138.205Y-120.0
X139.157Y-135.662
X139.46Y-121.075
X140.567Y-134.637
X140.705Y-120.025
X141.682Y-135.662
X142.01Y-121.05
X144.415Y-121.05
X145.435Y-121.9
X145.498Y-126.987
X145.805Y-120.05
X146.611Y-122.624
X146.631Y-126.25
X146.635Y-127.712
X146.757Y-135.662
X147.085Y-121.025
X147.745Y-128.79
X147.76Y-123.35
X147.764Y-125.523
X148.177Y-134.637
X148.355Y-120.05
X148.897Y-124.799
X149.332Y-135.662
X149.635Y-121.025
X150.03Y-124.075
X150.667Y-134.637
X150.88Y-120.05
X152.16Y-121.05
X153.237Y-134.637
X153.435Y-121.79
X154.675Y-121.1
X155.667Y-134.632
X155.985Y-121.79
X157.26Y-121.05
X158.217Y-134.657
X158.515Y-121.78
X159.785Y-121.05
X160.742Y-134.632
X161.055Y-121.78
X162.335Y-121.05
X163.267Y-134.657
X163.595Y-121.78
X164.86Y-121.075
X165.792Y-134.657
X166.135Y-121.77
X167.41Y-121.05
X168.367Y-134.632
X168.675Y-121.77
X169.935Y-121.05
X170.917Y-134.607
X171.235Y-121.78
X172.485Y-121.05
X173.417Y-134.632
X173.755Y-121.79
X174.942Y-133.007
X176.06Y-122.15
X176.095Y-115.89
X177.177Y-139.547
T0
M30
