%TF.GenerationSoftware,KiCad,Pcbnew,(6.0.5-0)*%
%TF.CreationDate,2022-12-24T01:00:05+09:00*%
%TF.ProjectId,ScsiRider1.2,53637369-5269-4646-9572-312e322e6b69,rev?*%
%TF.SameCoordinates,Original*%
%TF.FileFunction,Copper,L2,Bot*%
%TF.FilePolarity,Positive*%
%FSLAX46Y46*%
G04 Gerber Fmt 4.6, Leading zero omitted, Abs format (unit mm)*
G04 Created by KiCad (PCBNEW (6.0.5-0)) date 2022-12-24 01:00:05*
%MOMM*%
%LPD*%
G01*
G04 APERTURE LIST*
G04 Aperture macros list*
%AMRoundRect*
0 Rectangle with rounded corners*
0 $1 Rounding radius*
0 $2 $3 $4 $5 $6 $7 $8 $9 X,Y pos of 4 corners*
0 Add a 4 corners polygon primitive as box body*
4,1,4,$2,$3,$4,$5,$6,$7,$8,$9,$2,$3,0*
0 Add four circle primitives for the rounded corners*
1,1,$1+$1,$2,$3*
1,1,$1+$1,$4,$5*
1,1,$1+$1,$6,$7*
1,1,$1+$1,$8,$9*
0 Add four rect primitives between the rounded corners*
20,1,$1+$1,$2,$3,$4,$5,0*
20,1,$1+$1,$4,$5,$6,$7,0*
20,1,$1+$1,$6,$7,$8,$9,0*
20,1,$1+$1,$8,$9,$2,$3,0*%
G04 Aperture macros list end*
%ADD10C,0.150000*%
%TA.AperFunction,NonConductor*%
%ADD11C,0.150000*%
%TD*%
%TA.AperFunction,ConnectorPad*%
%ADD12R,1.780000X5.000000*%
%TD*%
%TA.AperFunction,SMDPad,CuDef*%
%ADD13RoundRect,0.250000X0.262500X0.450000X-0.262500X0.450000X-0.262500X-0.450000X0.262500X-0.450000X0*%
%TD*%
%TA.AperFunction,SMDPad,CuDef*%
%ADD14RoundRect,0.250000X1.075000X-0.425000X1.075000X0.425000X-1.075000X0.425000X-1.075000X-0.425000X0*%
%TD*%
%TA.AperFunction,ViaPad*%
%ADD15C,0.800000*%
%TD*%
%TA.AperFunction,Conductor*%
%ADD16C,0.200000*%
%TD*%
%TA.AperFunction,Conductor*%
%ADD17C,0.250000*%
%TD*%
%TA.AperFunction,Conductor*%
%ADD18C,0.500000*%
%TD*%
G04 APERTURE END LIST*
D10*
%TO.C,F1*%
D11*
X143798571Y-131161666D02*
X143798571Y-130828333D01*
X144322380Y-130828333D02*
X143322380Y-130828333D01*
X143322380Y-131304523D01*
X144322380Y-132209285D02*
X144322380Y-131637857D01*
X144322380Y-131923571D02*
X143322380Y-131923571D01*
X143465238Y-131828333D01*
X143560476Y-131733095D01*
X143608095Y-131637857D01*
%TD*%
D12*
%TO.P,J2,2*%
%TO.N,DB0*%
X173755000Y-117550000D03*
%TO.P,J2,4*%
%TO.N,DB1*%
X171215000Y-117550000D03*
%TO.P,J2,6*%
%TO.N,DB2*%
X168675000Y-117550000D03*
%TO.P,J2,8*%
%TO.N,DB3*%
X166135000Y-117550000D03*
%TO.P,J2,10*%
%TO.N,DB4*%
X163595000Y-117550000D03*
%TO.P,J2,12*%
%TO.N,DB5*%
X161055000Y-117550000D03*
%TO.P,J2,14*%
%TO.N,DB6*%
X158515000Y-117550000D03*
%TO.P,J2,16*%
%TO.N,DB7*%
X155975000Y-117550000D03*
%TO.P,J2,18*%
%TO.N,DBP*%
X153435000Y-117550000D03*
%TO.P,J2,20*%
%TO.N,GND*%
X150895000Y-117550000D03*
%TO.P,J2,22*%
X148355000Y-117550000D03*
%TO.P,J2,24*%
X145815000Y-117550000D03*
%TO.P,J2,26*%
%TO.N,+5V*%
X143275000Y-117550000D03*
%TO.P,J2,28*%
%TO.N,GND*%
X140735000Y-117550000D03*
%TO.P,J2,30*%
X138195000Y-117550000D03*
%TO.P,J2,32*%
%TO.N,ATN*%
X135655000Y-117550000D03*
%TO.P,J2,34*%
%TO.N,N/C*%
X133115000Y-117550000D03*
%TO.P,J2,36*%
%TO.N,BSY*%
X130575000Y-117550000D03*
%TO.P,J2,38*%
%TO.N,ACK*%
X128035000Y-117550000D03*
%TO.P,J2,40*%
%TO.N,RST*%
X125495000Y-117550000D03*
%TO.P,J2,42*%
%TO.N,MSG*%
X122955000Y-117550000D03*
%TO.P,J2,44*%
%TO.N,SEL*%
X120415000Y-117550000D03*
%TO.P,J2,46*%
%TO.N,CD*%
X117875000Y-117550000D03*
%TO.P,J2,48*%
%TO.N,REQ*%
X115335000Y-117550000D03*
%TO.P,J2,50*%
%TO.N,IO*%
X112795000Y-117550000D03*
%TD*%
%TO.P,J1,2*%
%TO.N,DB0*%
X113877005Y-138147325D03*
%TO.P,J1,4*%
%TO.N,DB1*%
X116417005Y-138147325D03*
%TO.P,J1,6*%
%TO.N,DB2*%
X118957005Y-138147325D03*
%TO.P,J1,8*%
%TO.N,DB3*%
X121497005Y-138147325D03*
%TO.P,J1,10*%
%TO.N,DB4*%
X124037005Y-138147325D03*
%TO.P,J1,12*%
%TO.N,DB5*%
X126577005Y-138147325D03*
%TO.P,J1,14*%
%TO.N,DB6*%
X129117005Y-138147325D03*
%TO.P,J1,16*%
%TO.N,DB7*%
X131657005Y-138147325D03*
%TO.P,J1,18*%
%TO.N,DBP*%
X134197005Y-138147325D03*
%TO.P,J1,20*%
%TO.N,GND*%
X136737005Y-138147325D03*
%TO.P,J1,22*%
X139277005Y-138147325D03*
%TO.P,J1,24*%
X141817005Y-138147325D03*
%TO.P,J1,26*%
%TO.N,+5V-in*%
X144357005Y-138147325D03*
%TO.P,J1,28*%
%TO.N,GND*%
X146897005Y-138147325D03*
%TO.P,J1,30*%
X149437005Y-138147325D03*
%TO.P,J1,32*%
%TO.N,ATN*%
X151977005Y-138147325D03*
%TO.P,J1,34*%
%TO.N,N/C*%
X154517005Y-138147325D03*
%TO.P,J1,36*%
%TO.N,BSY*%
X157057005Y-138147325D03*
%TO.P,J1,38*%
%TO.N,ACK*%
X159597005Y-138147325D03*
%TO.P,J1,40*%
%TO.N,RST*%
X162137005Y-138147325D03*
%TO.P,J1,42*%
%TO.N,MSG*%
X164677005Y-138147325D03*
%TO.P,J1,44*%
%TO.N,SEL*%
X167217005Y-138147325D03*
%TO.P,J1,46*%
%TO.N,CD*%
X169757005Y-138147325D03*
%TO.P,J1,48*%
%TO.N,REQ*%
X172297005Y-138147325D03*
%TO.P,J1,50*%
%TO.N,IO*%
X174837005Y-138147325D03*
%TD*%
D13*
%TO.P,331,1*%
%TO.N,+5V*%
X140417500Y-127670000D03*
%TO.P,331,2*%
%TO.N,N/C*%
X138592500Y-127670000D03*
%TD*%
D14*
%TO.P,F1,1*%
%TO.N,+5V-in*%
X143870000Y-133745000D03*
%TO.P,F1,2*%
%TO.N,+5V*%
X143870000Y-129245000D03*
%TD*%
D15*
%TO.N,*%
X119460000Y-127690000D03*
%TO.N,GND*%
X148177005Y-134637325D03*
X147745000Y-128790000D03*
X124235000Y-121075000D03*
X111442005Y-139607325D03*
X126785000Y-126055000D03*
X119135000Y-121075000D03*
X116610000Y-121050000D03*
X110360000Y-115925000D03*
X117567005Y-134607325D03*
X134385000Y-121050000D03*
X122642005Y-134607325D03*
X170917005Y-134607325D03*
X136607005Y-135662325D03*
X150880000Y-120050000D03*
X163267005Y-134657325D03*
X162335000Y-121050000D03*
X172485000Y-121050000D03*
X155667005Y-134632325D03*
X168367005Y-134632325D03*
X167410000Y-121050000D03*
X169935000Y-121050000D03*
X114085000Y-121075000D03*
X139157005Y-135662325D03*
X121660000Y-121100000D03*
X125167005Y-134632325D03*
X176095000Y-115890000D03*
X147085000Y-121025000D03*
X130242005Y-134632325D03*
X160742005Y-134632325D03*
X140567005Y-134637325D03*
X159785000Y-121050000D03*
X126760000Y-121075000D03*
X142010000Y-121050000D03*
X132817005Y-134582325D03*
X165792005Y-134657325D03*
X148355000Y-120050000D03*
X174942005Y-133007325D03*
X177177005Y-139547325D03*
X135317005Y-134582325D03*
X144415000Y-121050000D03*
X152160000Y-121050000D03*
X150667005Y-134637325D03*
X127742005Y-134657325D03*
X112835000Y-125480000D03*
X137997005Y-134637325D03*
X157260000Y-121050000D03*
X131835000Y-121050000D03*
X138205000Y-120000000D03*
X129310000Y-121075000D03*
X120092005Y-134607325D03*
X176060000Y-122150000D03*
X149332005Y-135662325D03*
X141682005Y-135662325D03*
X145805000Y-120050000D03*
X140705000Y-120025000D03*
X173417005Y-134632325D03*
X139460000Y-121075000D03*
X149635000Y-121025000D03*
X153237005Y-134637325D03*
X137007005Y-129067325D03*
X146757005Y-135662325D03*
X158217005Y-134657325D03*
X136910000Y-121075000D03*
X115042005Y-134607325D03*
X164860000Y-121075000D03*
X132707005Y-129067325D03*
X154675000Y-121100000D03*
%TO.N,ATN*%
X135610000Y-125771140D03*
X146635000Y-127712000D03*
%TO.N,DB1*%
X171235000Y-121780000D03*
X116342005Y-132682325D03*
%TO.N,DB0*%
X113767005Y-133482325D03*
X173755000Y-121790000D03*
%TO.N,DB2*%
X168675000Y-121770000D03*
X118817005Y-132308305D03*
%TO.N,DB3*%
X166135000Y-121770000D03*
X121367005Y-131858785D03*
%TO.N,DB4*%
X123917005Y-131409265D03*
X163595000Y-121780000D03*
%TO.N,DB5*%
X161055000Y-121780000D03*
X126467005Y-130959745D03*
%TO.N,DB6*%
X158515000Y-121780000D03*
X128967005Y-130510225D03*
%TO.N,DB7*%
X131517005Y-130060705D03*
X155985000Y-121790000D03*
%TO.N,DBP*%
X153435000Y-121790000D03*
X134117005Y-129611185D03*
%TO.N,BSY*%
X145497500Y-126987500D03*
X130585000Y-125321620D03*
%TO.N,ACK*%
X128037000Y-124872100D03*
X146630714Y-126250000D03*
%TO.N,RST*%
X147763928Y-125523500D03*
X125485000Y-124422580D03*
%TO.N,MSG*%
X148897142Y-124799000D03*
X122960000Y-123973060D03*
%TO.N,SEL*%
X120410000Y-123523540D03*
X150030356Y-124074500D03*
%TO.N,CD*%
X117860000Y-123074020D03*
X147760000Y-123350000D03*
%TO.N,REQ*%
X146610500Y-122624500D03*
X115330000Y-122625000D03*
%TO.N,IO*%
X112855000Y-121900000D03*
X145435000Y-121900000D03*
%TD*%
D16*
%TO.N,*%
X119480000Y-127670000D02*
X138592500Y-127670000D01*
X119460000Y-127690000D02*
X119480000Y-127670000D01*
D17*
%TO.N,+5V*%
X140417500Y-127670000D02*
X142704680Y-127670000D01*
D18*
X143275000Y-129085000D02*
X143275000Y-117550000D01*
D17*
X142704680Y-127670000D02*
X144242005Y-129207325D01*
%TO.N,ATN*%
X151852005Y-138157325D02*
X151852005Y-129210197D01*
X135655000Y-125726140D02*
X135655000Y-117550000D01*
X150353808Y-127712000D02*
X146635000Y-127712000D01*
X151852005Y-129210197D02*
X150353808Y-127712000D01*
%TO.N,DB1*%
X171235000Y-121780000D02*
X171230000Y-121775000D01*
X171230000Y-121775000D02*
X171230000Y-117565000D01*
X116292005Y-132732325D02*
X116292005Y-138157325D01*
X116342005Y-132682325D02*
X116292005Y-132732325D01*
X171230000Y-117565000D02*
X171215000Y-117550000D01*
%TO.N,DB0*%
X173755000Y-121790000D02*
X173755000Y-117550000D01*
X113752005Y-133497325D02*
X113752005Y-138157325D01*
X113767005Y-133482325D02*
X113752005Y-133497325D01*
%TO.N,DB2*%
X118817005Y-132308305D02*
X118832005Y-132323305D01*
X168675000Y-121770000D02*
X168675000Y-117550000D01*
X118832005Y-132323305D02*
X118832005Y-138157325D01*
%TO.N,DB3*%
X166135000Y-121770000D02*
X166135000Y-117550000D01*
X121372005Y-131863785D02*
X121372005Y-138157325D01*
X121367005Y-131858785D02*
X121372005Y-131863785D01*
%TO.N,DB4*%
X163595000Y-121780000D02*
X163595000Y-117550000D01*
X123912005Y-131414265D02*
X123912005Y-138157325D01*
X123917005Y-131409265D02*
X123912005Y-131414265D01*
%TO.N,DB5*%
X126467005Y-130959745D02*
X126452005Y-130974745D01*
X161055000Y-121780000D02*
X161055000Y-117550000D01*
X126452005Y-130974745D02*
X126452005Y-138157325D01*
%TO.N,DB6*%
X158515000Y-121780000D02*
X158515000Y-117550000D01*
X128967005Y-130510225D02*
X128992005Y-130535225D01*
X128992005Y-130535225D02*
X128992005Y-138157325D01*
%TO.N,DB7*%
X131532005Y-130075705D02*
X131532005Y-138157325D01*
X131517005Y-130060705D02*
X131532005Y-130075705D01*
X155985000Y-121790000D02*
X155975000Y-121780000D01*
X155975000Y-121780000D02*
X155975000Y-117550000D01*
%TO.N,DBP*%
X134072005Y-129656185D02*
X134072005Y-138157325D01*
X153435000Y-117550000D02*
X153435000Y-121790000D01*
X134117005Y-129611185D02*
X134072005Y-129656185D01*
%TO.N,BSY*%
X130575000Y-125311620D02*
X130575000Y-117550000D01*
X150265026Y-126987500D02*
X156932005Y-133654479D01*
X130585000Y-125321620D02*
X130575000Y-125311620D01*
X156932005Y-133654479D02*
X156932005Y-138157325D01*
X145497500Y-126987500D02*
X150265026Y-126987500D01*
%TO.N,ACK*%
X128037000Y-124872100D02*
X128035000Y-124870100D01*
X146630714Y-126250000D02*
X150163244Y-126250000D01*
X157467691Y-133554445D02*
X159472005Y-133554445D01*
X150163244Y-126250000D02*
X157467691Y-133554445D01*
X159472005Y-133554445D02*
X159472005Y-138157325D01*
X128035000Y-124870100D02*
X128035000Y-117550000D01*
%TO.N,RST*%
X157653888Y-133104925D02*
X162012005Y-133104925D01*
X125495000Y-124412580D02*
X125495000Y-117550000D01*
X150072462Y-125523500D02*
X157653888Y-133104925D01*
X125485000Y-124422580D02*
X125495000Y-124412580D01*
X147763928Y-125523500D02*
X150072462Y-125523500D01*
X162012005Y-133104925D02*
X162012005Y-138157325D01*
%TO.N,MSG*%
X164552005Y-132655405D02*
X164552005Y-138157325D01*
X148897142Y-124799000D02*
X149983680Y-124799000D01*
X122960000Y-123973060D02*
X122955000Y-123968060D01*
X157840085Y-132655405D02*
X164552005Y-132655405D01*
X149983680Y-124799000D02*
X157840085Y-132655405D01*
X122955000Y-123968060D02*
X122955000Y-117550000D01*
%TO.N,SEL*%
X150030356Y-124074500D02*
X150030356Y-124170676D01*
X164890565Y-132205885D02*
X167092005Y-134407325D01*
X167092005Y-134407325D02*
X167092005Y-138157325D01*
X150030356Y-124170676D02*
X151112361Y-125252681D01*
X158065568Y-132205885D02*
X164890565Y-132205885D01*
X151112361Y-125252681D02*
X158065568Y-132205885D01*
X120415000Y-123518540D02*
X120415000Y-117550000D01*
X120410000Y-123523540D02*
X120415000Y-123518540D01*
%TO.N,CD*%
X169632005Y-134397325D02*
X169632005Y-138157325D01*
X150330470Y-123350000D02*
X150754867Y-123774397D01*
X166991045Y-131756365D02*
X169632005Y-134397325D01*
X117875000Y-117550000D02*
X117875000Y-123059020D01*
X150754867Y-123774397D02*
X150754867Y-124259467D01*
X150754867Y-124259467D02*
X158251765Y-131756365D01*
X147760000Y-123350000D02*
X150330470Y-123350000D01*
X117875000Y-123059020D02*
X117860000Y-123074020D01*
X158251765Y-131756365D02*
X166991045Y-131756365D01*
%TO.N,REQ*%
X151204387Y-123588200D02*
X151204387Y-124073270D01*
X115335000Y-122620000D02*
X115335000Y-117550000D01*
X150240687Y-122624500D02*
X151204387Y-123588200D01*
X172172005Y-134587325D02*
X172172005Y-138157325D01*
X158437962Y-131306845D02*
X168891525Y-131306845D01*
X146610500Y-122624500D02*
X150240687Y-122624500D01*
X151204387Y-124073270D02*
X158437962Y-131306845D01*
X168891525Y-131306845D02*
X172172005Y-134587325D01*
%TO.N,IO*%
X151653907Y-123887073D02*
X158624159Y-130857325D01*
X112795000Y-121840000D02*
X112795000Y-117550000D01*
X145435000Y-121900000D02*
X150151904Y-121900000D01*
X174712005Y-134777325D02*
X174712005Y-138157325D01*
X151653907Y-123402003D02*
X151653907Y-123887073D01*
X158624159Y-130857325D02*
X170792005Y-130857325D01*
X112855000Y-121900000D02*
X112795000Y-121840000D01*
X170792005Y-130857325D02*
X174712005Y-134777325D01*
X150151904Y-121900000D02*
X151653907Y-123402003D01*
D18*
%TO.N,+5V-in*%
X144232005Y-133717325D02*
X144232005Y-138157325D01*
%TD*%
%TA.AperFunction,Conductor*%
%TO.N,GND*%
G36*
X111338621Y-115128502D02*
G01*
X111385114Y-115182158D01*
X111396500Y-115234500D01*
X111396500Y-120098134D01*
X111403255Y-120160316D01*
X111454385Y-120296705D01*
X111541739Y-120413261D01*
X111658295Y-120500615D01*
X111794684Y-120551745D01*
X111856866Y-120558500D01*
X112035500Y-120558500D01*
X112103621Y-120578502D01*
X112150114Y-120632158D01*
X112161500Y-120684500D01*
X112161500Y-121264112D01*
X112141498Y-121332233D01*
X112129136Y-121348422D01*
X112115960Y-121363056D01*
X112112659Y-121368774D01*
X112112657Y-121368777D01*
X112086127Y-121414729D01*
X112020473Y-121528444D01*
X111961458Y-121710072D01*
X111941496Y-121900000D01*
X111942186Y-121906565D01*
X111959231Y-122068735D01*
X111961458Y-122089928D01*
X112020473Y-122271556D01*
X112023776Y-122277278D01*
X112023777Y-122277279D01*
X112043738Y-122311852D01*
X112115960Y-122436944D01*
X112120378Y-122441851D01*
X112120379Y-122441852D01*
X112145396Y-122469636D01*
X112243747Y-122578866D01*
X112328119Y-122640166D01*
X112385766Y-122682049D01*
X112398248Y-122691118D01*
X112404276Y-122693802D01*
X112404278Y-122693803D01*
X112566681Y-122766109D01*
X112572712Y-122768794D01*
X112658962Y-122787127D01*
X112753056Y-122807128D01*
X112753061Y-122807128D01*
X112759513Y-122808500D01*
X112950487Y-122808500D01*
X112956939Y-122807128D01*
X112956944Y-122807128D01*
X113051038Y-122787127D01*
X113137288Y-122768794D01*
X113143319Y-122766109D01*
X113305722Y-122693803D01*
X113305724Y-122693802D01*
X113311752Y-122691118D01*
X113324235Y-122682049D01*
X113381881Y-122640166D01*
X113466253Y-122578866D01*
X113564604Y-122469636D01*
X113589621Y-122441852D01*
X113589622Y-122441851D01*
X113594040Y-122436944D01*
X113666262Y-122311852D01*
X113686223Y-122277279D01*
X113686224Y-122277278D01*
X113689527Y-122271556D01*
X113748542Y-122089928D01*
X113750770Y-122068735D01*
X113767814Y-121906565D01*
X113768504Y-121900000D01*
X113748542Y-121710072D01*
X113689527Y-121528444D01*
X113594040Y-121363056D01*
X113582632Y-121350386D01*
X113470679Y-121226049D01*
X113470675Y-121226045D01*
X113466253Y-121221134D01*
X113467012Y-121220450D01*
X113432951Y-121165166D01*
X113428500Y-121131972D01*
X113428500Y-120684500D01*
X113448502Y-120616379D01*
X113502158Y-120569886D01*
X113554500Y-120558500D01*
X113733134Y-120558500D01*
X113795316Y-120551745D01*
X113931705Y-120500615D01*
X113989434Y-120457349D01*
X114055942Y-120432501D01*
X114125324Y-120447554D01*
X114140565Y-120457349D01*
X114198295Y-120500615D01*
X114334684Y-120551745D01*
X114396866Y-120558500D01*
X114575500Y-120558500D01*
X114643621Y-120578502D01*
X114690114Y-120632158D01*
X114701500Y-120684500D01*
X114701500Y-121916923D01*
X114681498Y-121985044D01*
X114669142Y-122001226D01*
X114590960Y-122088056D01*
X114495473Y-122253444D01*
X114436458Y-122435072D01*
X114435768Y-122441633D01*
X114435768Y-122441635D01*
X114426253Y-122532168D01*
X114416496Y-122625000D01*
X114417186Y-122631565D01*
X114433333Y-122785191D01*
X114436458Y-122814928D01*
X114495473Y-122996556D01*
X114498776Y-123002278D01*
X114498777Y-123002279D01*
X114514503Y-123029517D01*
X114590960Y-123161944D01*
X114595378Y-123166851D01*
X114595379Y-123166852D01*
X114710319Y-123294506D01*
X114718747Y-123303866D01*
X114873248Y-123416118D01*
X114879276Y-123418802D01*
X114879278Y-123418803D01*
X114976512Y-123462094D01*
X115047712Y-123493794D01*
X115141112Y-123513647D01*
X115228056Y-123532128D01*
X115228061Y-123532128D01*
X115234513Y-123533500D01*
X115425487Y-123533500D01*
X115431939Y-123532128D01*
X115431944Y-123532128D01*
X115518888Y-123513647D01*
X115612288Y-123493794D01*
X115683488Y-123462094D01*
X115780722Y-123418803D01*
X115780724Y-123418802D01*
X115786752Y-123416118D01*
X115941253Y-123303866D01*
X115949681Y-123294506D01*
X116064621Y-123166852D01*
X116064622Y-123166851D01*
X116069040Y-123161944D01*
X116145497Y-123029517D01*
X116161223Y-123002279D01*
X116161224Y-123002278D01*
X116164527Y-122996556D01*
X116223542Y-122814928D01*
X116226668Y-122785191D01*
X116242814Y-122631565D01*
X116243504Y-122625000D01*
X116233747Y-122532168D01*
X116224232Y-122441635D01*
X116224232Y-122441633D01*
X116223542Y-122435072D01*
X116164527Y-122253444D01*
X116069040Y-122088056D01*
X116000863Y-122012338D01*
X115970147Y-121948332D01*
X115968500Y-121928029D01*
X115968500Y-120684500D01*
X115988502Y-120616379D01*
X116042158Y-120569886D01*
X116094500Y-120558500D01*
X116273134Y-120558500D01*
X116335316Y-120551745D01*
X116471705Y-120500615D01*
X116529434Y-120457349D01*
X116595942Y-120432501D01*
X116665324Y-120447554D01*
X116680565Y-120457349D01*
X116738295Y-120500615D01*
X116874684Y-120551745D01*
X116936866Y-120558500D01*
X117115500Y-120558500D01*
X117183621Y-120578502D01*
X117230114Y-120632158D01*
X117241500Y-120684500D01*
X117241500Y-122354836D01*
X117221498Y-122422957D01*
X117209137Y-122439146D01*
X117120960Y-122537076D01*
X117117659Y-122542794D01*
X117117657Y-122542797D01*
X117032024Y-122691118D01*
X117025473Y-122702464D01*
X116966458Y-122884092D01*
X116965768Y-122890653D01*
X116965768Y-122890655D01*
X116951343Y-123027900D01*
X116946496Y-123074020D01*
X116947186Y-123080585D01*
X116959377Y-123196572D01*
X116966458Y-123263948D01*
X117025473Y-123445576D01*
X117028776Y-123451298D01*
X117028777Y-123451299D01*
X117053023Y-123493294D01*
X117120960Y-123610964D01*
X117125378Y-123615871D01*
X117125379Y-123615872D01*
X117209186Y-123708949D01*
X117248747Y-123752886D01*
X117403248Y-123865138D01*
X117409276Y-123867822D01*
X117409278Y-123867823D01*
X117571681Y-123940129D01*
X117577712Y-123942814D01*
X117671112Y-123962667D01*
X117758056Y-123981148D01*
X117758061Y-123981148D01*
X117764513Y-123982520D01*
X117955487Y-123982520D01*
X117961939Y-123981148D01*
X117961944Y-123981148D01*
X118048888Y-123962667D01*
X118142288Y-123942814D01*
X118148319Y-123940129D01*
X118310722Y-123867823D01*
X118310724Y-123867822D01*
X118316752Y-123865138D01*
X118471253Y-123752886D01*
X118510814Y-123708949D01*
X118594621Y-123615872D01*
X118594622Y-123615871D01*
X118599040Y-123610964D01*
X118666977Y-123493294D01*
X118691223Y-123451299D01*
X118691224Y-123451298D01*
X118694527Y-123445576D01*
X118753542Y-123263948D01*
X118760624Y-123196572D01*
X118772814Y-123080585D01*
X118773504Y-123074020D01*
X118768657Y-123027900D01*
X118754232Y-122890655D01*
X118754232Y-122890653D01*
X118753542Y-122884092D01*
X118694527Y-122702464D01*
X118687977Y-122691118D01*
X118640106Y-122608205D01*
X118599040Y-122537076D01*
X118540864Y-122472465D01*
X118510147Y-122408458D01*
X118508500Y-122388155D01*
X118508500Y-120684500D01*
X118528502Y-120616379D01*
X118582158Y-120569886D01*
X118634500Y-120558500D01*
X118813134Y-120558500D01*
X118875316Y-120551745D01*
X119011705Y-120500615D01*
X119069434Y-120457349D01*
X119135942Y-120432501D01*
X119205324Y-120447554D01*
X119220565Y-120457349D01*
X119278295Y-120500615D01*
X119414684Y-120551745D01*
X119476866Y-120558500D01*
X119655500Y-120558500D01*
X119723621Y-120578502D01*
X119770114Y-120632158D01*
X119781500Y-120684500D01*
X119781500Y-122815463D01*
X119761498Y-122883584D01*
X119749142Y-122899766D01*
X119670960Y-122986596D01*
X119632153Y-123053811D01*
X119587603Y-123130975D01*
X119575473Y-123151984D01*
X119516458Y-123333612D01*
X119515768Y-123340173D01*
X119515768Y-123340175D01*
X119497517Y-123513822D01*
X119496496Y-123523540D01*
X119497186Y-123530105D01*
X119505685Y-123610964D01*
X119516458Y-123713468D01*
X119575473Y-123895096D01*
X119670960Y-124060484D01*
X119675378Y-124065391D01*
X119675379Y-124065392D01*
X119785467Y-124187657D01*
X119798747Y-124202406D01*
X119953248Y-124314658D01*
X119959276Y-124317342D01*
X119959278Y-124317343D01*
X120012130Y-124340874D01*
X120127712Y-124392334D01*
X120221112Y-124412187D01*
X120308056Y-124430668D01*
X120308061Y-124430668D01*
X120314513Y-124432040D01*
X120505487Y-124432040D01*
X120511939Y-124430668D01*
X120511944Y-124430668D01*
X120598888Y-124412187D01*
X120692288Y-124392334D01*
X120807870Y-124340874D01*
X120860722Y-124317343D01*
X120860724Y-124317342D01*
X120866752Y-124314658D01*
X121021253Y-124202406D01*
X121034533Y-124187657D01*
X121144621Y-124065392D01*
X121144622Y-124065391D01*
X121149040Y-124060484D01*
X121244527Y-123895096D01*
X121303542Y-123713468D01*
X121314316Y-123610964D01*
X121322814Y-123530105D01*
X121323504Y-123523540D01*
X121322483Y-123513822D01*
X121304232Y-123340175D01*
X121304232Y-123340173D01*
X121303542Y-123333612D01*
X121244527Y-123151984D01*
X121232398Y-123130975D01*
X121187847Y-123053811D01*
X121149040Y-122986596D01*
X121080863Y-122910878D01*
X121050147Y-122846872D01*
X121048500Y-122826569D01*
X121048500Y-120684500D01*
X121068502Y-120616379D01*
X121122158Y-120569886D01*
X121174500Y-120558500D01*
X121353134Y-120558500D01*
X121415316Y-120551745D01*
X121551705Y-120500615D01*
X121609434Y-120457349D01*
X121675942Y-120432501D01*
X121745324Y-120447554D01*
X121760565Y-120457349D01*
X121818295Y-120500615D01*
X121954684Y-120551745D01*
X122016866Y-120558500D01*
X122195500Y-120558500D01*
X122263621Y-120578502D01*
X122310114Y-120632158D01*
X122321500Y-120684500D01*
X122321500Y-123276089D01*
X122301498Y-123344210D01*
X122289142Y-123360393D01*
X122220960Y-123436116D01*
X122176096Y-123513822D01*
X122137831Y-123580100D01*
X122125473Y-123601504D01*
X122066458Y-123783132D01*
X122065768Y-123789693D01*
X122065768Y-123789695D01*
X122055083Y-123891357D01*
X122046496Y-123973060D01*
X122047186Y-123979625D01*
X122064609Y-124145391D01*
X122066458Y-124162988D01*
X122125473Y-124344616D01*
X122220960Y-124510004D01*
X122225378Y-124514911D01*
X122225379Y-124514912D01*
X122309186Y-124607989D01*
X122348747Y-124651926D01*
X122503248Y-124764178D01*
X122509276Y-124766862D01*
X122509278Y-124766863D01*
X122671681Y-124839169D01*
X122677712Y-124841854D01*
X122771112Y-124861707D01*
X122858056Y-124880188D01*
X122858061Y-124880188D01*
X122864513Y-124881560D01*
X123055487Y-124881560D01*
X123061939Y-124880188D01*
X123061944Y-124880188D01*
X123148888Y-124861707D01*
X123242288Y-124841854D01*
X123248319Y-124839169D01*
X123410722Y-124766863D01*
X123410724Y-124766862D01*
X123416752Y-124764178D01*
X123571253Y-124651926D01*
X123610814Y-124607989D01*
X123694621Y-124514912D01*
X123694622Y-124514911D01*
X123699040Y-124510004D01*
X123794527Y-124344616D01*
X123853542Y-124162988D01*
X123855392Y-124145391D01*
X123872814Y-123979625D01*
X123873504Y-123973060D01*
X123864917Y-123891357D01*
X123854232Y-123789695D01*
X123854232Y-123789693D01*
X123853542Y-123783132D01*
X123794527Y-123601504D01*
X123782170Y-123580100D01*
X123743904Y-123513822D01*
X123699040Y-123436116D01*
X123620863Y-123349291D01*
X123590147Y-123285286D01*
X123588500Y-123264983D01*
X123588500Y-120684500D01*
X123608502Y-120616379D01*
X123662158Y-120569886D01*
X123714500Y-120558500D01*
X123893134Y-120558500D01*
X123955316Y-120551745D01*
X124091705Y-120500615D01*
X124149434Y-120457349D01*
X124215942Y-120432501D01*
X124285324Y-120447554D01*
X124300565Y-120457349D01*
X124358295Y-120500615D01*
X124494684Y-120551745D01*
X124556866Y-120558500D01*
X124735500Y-120558500D01*
X124803621Y-120578502D01*
X124850114Y-120632158D01*
X124861500Y-120684500D01*
X124861500Y-123708949D01*
X124841498Y-123777070D01*
X124829136Y-123793260D01*
X124764417Y-123865138D01*
X124745960Y-123885636D01*
X124650473Y-124051024D01*
X124591458Y-124232652D01*
X124590768Y-124239213D01*
X124590768Y-124239215D01*
X124580083Y-124340877D01*
X124571496Y-124422580D01*
X124572186Y-124429145D01*
X124580685Y-124510004D01*
X124591458Y-124612508D01*
X124650473Y-124794136D01*
X124745960Y-124959524D01*
X124750378Y-124964431D01*
X124750379Y-124964432D01*
X124869325Y-125096535D01*
X124873747Y-125101446D01*
X124906736Y-125125414D01*
X125013389Y-125202902D01*
X125028248Y-125213698D01*
X125034276Y-125216382D01*
X125034278Y-125216383D01*
X125087130Y-125239914D01*
X125202712Y-125291374D01*
X125296112Y-125311227D01*
X125383056Y-125329708D01*
X125383061Y-125329708D01*
X125389513Y-125331080D01*
X125580487Y-125331080D01*
X125586939Y-125329708D01*
X125586944Y-125329708D01*
X125673888Y-125311227D01*
X125767288Y-125291374D01*
X125882870Y-125239914D01*
X125935722Y-125216383D01*
X125935724Y-125216382D01*
X125941752Y-125213698D01*
X125956612Y-125202902D01*
X126063264Y-125125414D01*
X126096253Y-125101446D01*
X126100675Y-125096535D01*
X126219621Y-124964432D01*
X126219622Y-124964431D01*
X126224040Y-124959524D01*
X126319527Y-124794136D01*
X126378542Y-124612508D01*
X126389316Y-124510004D01*
X126397814Y-124429145D01*
X126398504Y-124422580D01*
X126389917Y-124340877D01*
X126379232Y-124239215D01*
X126379232Y-124239213D01*
X126378542Y-124232652D01*
X126319527Y-124051024D01*
X126224040Y-123885636D01*
X126186970Y-123844465D01*
X126160864Y-123815472D01*
X126130147Y-123751465D01*
X126128500Y-123731162D01*
X126128500Y-120684500D01*
X126148502Y-120616379D01*
X126202158Y-120569886D01*
X126254500Y-120558500D01*
X126433134Y-120558500D01*
X126495316Y-120551745D01*
X126631705Y-120500615D01*
X126689434Y-120457349D01*
X126755942Y-120432501D01*
X126825324Y-120447554D01*
X126840565Y-120457349D01*
X126898295Y-120500615D01*
X127034684Y-120551745D01*
X127096866Y-120558500D01*
X127275500Y-120558500D01*
X127343621Y-120578502D01*
X127390114Y-120632158D01*
X127401500Y-120684500D01*
X127401500Y-124171797D01*
X127381498Y-124239918D01*
X127369136Y-124256106D01*
X127297960Y-124335156D01*
X127202473Y-124500544D01*
X127143458Y-124682172D01*
X127142768Y-124688733D01*
X127142768Y-124688735D01*
X127132083Y-124790397D01*
X127123496Y-124872100D01*
X127124186Y-124878665D01*
X127138898Y-125018638D01*
X127143458Y-125062028D01*
X127202473Y-125243656D01*
X127297960Y-125409044D01*
X127302378Y-125413951D01*
X127302379Y-125413952D01*
X127390255Y-125511548D01*
X127425747Y-125550966D01*
X127580248Y-125663218D01*
X127586276Y-125665902D01*
X127586278Y-125665903D01*
X127705029Y-125718774D01*
X127754712Y-125740894D01*
X127848112Y-125760747D01*
X127935056Y-125779228D01*
X127935061Y-125779228D01*
X127941513Y-125780600D01*
X128132487Y-125780600D01*
X128138939Y-125779228D01*
X128138944Y-125779228D01*
X128225888Y-125760747D01*
X128319288Y-125740894D01*
X128368971Y-125718774D01*
X128487722Y-125665903D01*
X128487724Y-125665902D01*
X128493752Y-125663218D01*
X128648253Y-125550966D01*
X128683745Y-125511548D01*
X128771621Y-125413952D01*
X128771622Y-125413951D01*
X128776040Y-125409044D01*
X128871527Y-125243656D01*
X128930542Y-125062028D01*
X128935103Y-125018638D01*
X128949814Y-124878665D01*
X128950504Y-124872100D01*
X128941917Y-124790397D01*
X128931232Y-124688735D01*
X128931232Y-124688733D01*
X128930542Y-124682172D01*
X128871527Y-124500544D01*
X128776040Y-124335156D01*
X128757584Y-124314658D01*
X128700864Y-124251665D01*
X128670147Y-124187657D01*
X128668500Y-124167354D01*
X128668500Y-120684500D01*
X128688502Y-120616379D01*
X128742158Y-120569886D01*
X128794500Y-120558500D01*
X128973134Y-120558500D01*
X129035316Y-120551745D01*
X129171705Y-120500615D01*
X129229434Y-120457349D01*
X129295942Y-120432501D01*
X129365324Y-120447554D01*
X129380565Y-120457349D01*
X129438295Y-120500615D01*
X129574684Y-120551745D01*
X129636866Y-120558500D01*
X129815500Y-120558500D01*
X129883621Y-120578502D01*
X129930114Y-120632158D01*
X129941500Y-120684500D01*
X129941500Y-124630202D01*
X129921498Y-124698323D01*
X129909137Y-124714511D01*
X129845960Y-124784676D01*
X129750473Y-124950064D01*
X129691458Y-125131692D01*
X129690768Y-125138253D01*
X129690768Y-125138255D01*
X129680083Y-125239918D01*
X129671496Y-125321620D01*
X129672186Y-125328185D01*
X129686331Y-125462763D01*
X129691458Y-125511548D01*
X129750473Y-125693176D01*
X129845960Y-125858564D01*
X129850378Y-125863471D01*
X129850379Y-125863472D01*
X129938255Y-125961068D01*
X129973747Y-126000486D01*
X130128248Y-126112738D01*
X130134276Y-126115422D01*
X130134278Y-126115423D01*
X130195535Y-126142696D01*
X130302712Y-126190414D01*
X130396112Y-126210267D01*
X130483056Y-126228748D01*
X130483061Y-126228748D01*
X130489513Y-126230120D01*
X130680487Y-126230120D01*
X130686939Y-126228748D01*
X130686944Y-126228748D01*
X130773888Y-126210267D01*
X130867288Y-126190414D01*
X130974465Y-126142696D01*
X131035722Y-126115423D01*
X131035724Y-126115422D01*
X131041752Y-126112738D01*
X131196253Y-126000486D01*
X131231745Y-125961068D01*
X131319621Y-125863472D01*
X131319622Y-125863471D01*
X131324040Y-125858564D01*
X131419527Y-125693176D01*
X131478542Y-125511548D01*
X131483670Y-125462763D01*
X131497814Y-125328185D01*
X131498504Y-125321620D01*
X131489917Y-125239918D01*
X131479232Y-125138255D01*
X131479232Y-125138253D01*
X131478542Y-125131692D01*
X131419527Y-124950064D01*
X131324040Y-124784676D01*
X131305584Y-124764178D01*
X131240864Y-124692300D01*
X131210147Y-124628292D01*
X131208500Y-124607989D01*
X131208500Y-120684500D01*
X131228502Y-120616379D01*
X131282158Y-120569886D01*
X131334500Y-120558500D01*
X131513134Y-120558500D01*
X131575316Y-120551745D01*
X131711705Y-120500615D01*
X131769434Y-120457349D01*
X131835942Y-120432501D01*
X131905324Y-120447554D01*
X131920565Y-120457349D01*
X131978295Y-120500615D01*
X132114684Y-120551745D01*
X132176866Y-120558500D01*
X134053134Y-120558500D01*
X134115316Y-120551745D01*
X134251705Y-120500615D01*
X134309434Y-120457349D01*
X134375942Y-120432501D01*
X134445324Y-120447554D01*
X134460565Y-120457349D01*
X134518295Y-120500615D01*
X134654684Y-120551745D01*
X134716866Y-120558500D01*
X134895500Y-120558500D01*
X134963621Y-120578502D01*
X135010114Y-120632158D01*
X135021500Y-120684500D01*
X135021500Y-125018638D01*
X135001498Y-125086759D01*
X134989136Y-125102948D01*
X134939364Y-125158226D01*
X134870960Y-125234196D01*
X134837948Y-125291374D01*
X134786084Y-125381206D01*
X134775473Y-125399584D01*
X134716458Y-125581212D01*
X134696496Y-125771140D01*
X134697186Y-125777705D01*
X134705685Y-125858564D01*
X134716458Y-125961068D01*
X134775473Y-126142696D01*
X134778776Y-126148418D01*
X134778777Y-126148419D01*
X134806469Y-126196382D01*
X134870960Y-126308084D01*
X134875378Y-126312991D01*
X134875379Y-126312992D01*
X134980529Y-126429773D01*
X134998747Y-126450006D01*
X135153248Y-126562258D01*
X135159276Y-126564942D01*
X135159278Y-126564943D01*
X135321681Y-126637249D01*
X135327712Y-126639934D01*
X135421112Y-126659787D01*
X135508056Y-126678268D01*
X135508061Y-126678268D01*
X135514513Y-126679640D01*
X135705487Y-126679640D01*
X135711939Y-126678268D01*
X135711944Y-126678268D01*
X135798888Y-126659787D01*
X135892288Y-126639934D01*
X135898319Y-126637249D01*
X136060722Y-126564943D01*
X136060724Y-126564942D01*
X136066752Y-126562258D01*
X136221253Y-126450006D01*
X136239471Y-126429773D01*
X136344621Y-126312992D01*
X136344622Y-126312991D01*
X136349040Y-126308084D01*
X136413531Y-126196382D01*
X136441223Y-126148419D01*
X136441224Y-126148418D01*
X136444527Y-126142696D01*
X136503542Y-125961068D01*
X136514316Y-125858564D01*
X136522814Y-125777705D01*
X136523504Y-125771140D01*
X136503542Y-125581212D01*
X136444527Y-125399584D01*
X136435467Y-125383891D01*
X136352344Y-125239918D01*
X136352341Y-125239914D01*
X136349040Y-125234196D01*
X136320863Y-125202902D01*
X136290146Y-125138894D01*
X136288500Y-125118592D01*
X136288500Y-120684500D01*
X136308502Y-120616379D01*
X136362158Y-120569886D01*
X136414500Y-120558500D01*
X136593134Y-120558500D01*
X136655316Y-120551745D01*
X136791705Y-120500615D01*
X136849852Y-120457036D01*
X136916358Y-120432188D01*
X136985741Y-120447241D01*
X137000982Y-120457036D01*
X137051352Y-120494786D01*
X137066946Y-120503324D01*
X137187394Y-120548478D01*
X137202649Y-120552105D01*
X137253514Y-120557631D01*
X137260328Y-120558000D01*
X137922885Y-120558000D01*
X137938124Y-120553525D01*
X137939329Y-120552135D01*
X137941000Y-120544452D01*
X137941000Y-120539884D01*
X138449000Y-120539884D01*
X138453475Y-120555123D01*
X138454865Y-120556328D01*
X138462548Y-120557999D01*
X139129669Y-120557999D01*
X139136490Y-120557629D01*
X139187352Y-120552105D01*
X139202604Y-120548479D01*
X139323054Y-120503324D01*
X139338649Y-120494786D01*
X139389435Y-120456724D01*
X139455942Y-120431876D01*
X139525324Y-120446929D01*
X139540565Y-120456724D01*
X139591351Y-120494786D01*
X139606946Y-120503324D01*
X139727394Y-120548478D01*
X139742649Y-120552105D01*
X139793514Y-120557631D01*
X139800328Y-120558000D01*
X140462885Y-120558000D01*
X140478124Y-120553525D01*
X140479329Y-120552135D01*
X140481000Y-120544452D01*
X140481000Y-117822115D01*
X140476525Y-117806876D01*
X140475135Y-117805671D01*
X140467452Y-117804000D01*
X138467115Y-117804000D01*
X138451876Y-117808475D01*
X138450671Y-117809865D01*
X138449000Y-117817548D01*
X138449000Y-120539884D01*
X137941000Y-120539884D01*
X137941000Y-117422000D01*
X137961002Y-117353879D01*
X138014658Y-117307386D01*
X138067000Y-117296000D01*
X140863000Y-117296000D01*
X140931121Y-117316002D01*
X140977614Y-117369658D01*
X140989000Y-117422000D01*
X140989000Y-120539884D01*
X140993475Y-120555123D01*
X140994865Y-120556328D01*
X141002548Y-120557999D01*
X141669669Y-120557999D01*
X141676490Y-120557629D01*
X141727352Y-120552105D01*
X141742604Y-120548479D01*
X141863054Y-120503324D01*
X141878648Y-120494786D01*
X141929018Y-120457036D01*
X141995524Y-120432188D01*
X142064907Y-120447241D01*
X142080146Y-120457035D01*
X142138295Y-120500615D01*
X142274684Y-120551745D01*
X142336866Y-120558500D01*
X142390500Y-120558500D01*
X142458621Y-120578502D01*
X142505114Y-120632158D01*
X142516500Y-120684500D01*
X142516500Y-126910500D01*
X142496498Y-126978621D01*
X142442842Y-127025114D01*
X142390500Y-127036500D01*
X141509197Y-127036500D01*
X141441076Y-127016498D01*
X141394583Y-126962842D01*
X141389674Y-126950377D01*
X141373867Y-126902998D01*
X141373866Y-126902996D01*
X141371550Y-126896054D01*
X141325233Y-126821206D01*
X141282332Y-126751880D01*
X141278478Y-126745652D01*
X141153303Y-126620695D01*
X141147072Y-126616854D01*
X141008968Y-126531725D01*
X141008966Y-126531724D01*
X141002738Y-126527885D01*
X140842254Y-126474655D01*
X140841389Y-126474368D01*
X140841387Y-126474368D01*
X140834861Y-126472203D01*
X140828025Y-126471503D01*
X140828022Y-126471502D01*
X140784969Y-126467091D01*
X140730400Y-126461500D01*
X140104600Y-126461500D01*
X140101354Y-126461837D01*
X140101350Y-126461837D01*
X140005692Y-126471762D01*
X140005688Y-126471763D01*
X139998834Y-126472474D01*
X139992298Y-126474655D01*
X139992296Y-126474655D01*
X139860194Y-126518728D01*
X139831054Y-126528450D01*
X139680652Y-126621522D01*
X139675479Y-126626704D01*
X139594216Y-126708109D01*
X139531934Y-126742188D01*
X139461114Y-126737185D01*
X139416025Y-126708264D01*
X139333483Y-126625866D01*
X139328303Y-126620695D01*
X139322072Y-126616854D01*
X139183968Y-126531725D01*
X139183966Y-126531724D01*
X139177738Y-126527885D01*
X139017254Y-126474655D01*
X139016389Y-126474368D01*
X139016387Y-126474368D01*
X139009861Y-126472203D01*
X139003025Y-126471503D01*
X139003022Y-126471502D01*
X138959969Y-126467091D01*
X138905400Y-126461500D01*
X138279600Y-126461500D01*
X138276354Y-126461837D01*
X138276350Y-126461837D01*
X138180692Y-126471762D01*
X138180688Y-126471763D01*
X138173834Y-126472474D01*
X138167298Y-126474655D01*
X138167296Y-126474655D01*
X138035194Y-126518728D01*
X138006054Y-126528450D01*
X137855652Y-126621522D01*
X137730695Y-126746697D01*
X137726855Y-126752927D01*
X137726854Y-126752928D01*
X137685613Y-126819834D01*
X137637885Y-126897262D01*
X137620268Y-126950377D01*
X137612045Y-126975167D01*
X137571614Y-127033527D01*
X137506050Y-127060764D01*
X137492452Y-127061500D01*
X120172702Y-127061500D01*
X120104581Y-127041498D01*
X120079067Y-127019812D01*
X120075669Y-127016038D01*
X120075667Y-127016036D01*
X120071253Y-127011134D01*
X120021749Y-126975167D01*
X119922094Y-126902763D01*
X119922093Y-126902762D01*
X119916752Y-126898882D01*
X119910724Y-126896198D01*
X119910722Y-126896197D01*
X119748319Y-126823891D01*
X119748318Y-126823891D01*
X119742288Y-126821206D01*
X119648887Y-126801353D01*
X119561944Y-126782872D01*
X119561939Y-126782872D01*
X119555487Y-126781500D01*
X119364513Y-126781500D01*
X119358061Y-126782872D01*
X119358056Y-126782872D01*
X119271113Y-126801353D01*
X119177712Y-126821206D01*
X119171682Y-126823891D01*
X119171681Y-126823891D01*
X119009278Y-126896197D01*
X119009276Y-126896198D01*
X119003248Y-126898882D01*
X118997907Y-126902762D01*
X118997906Y-126902763D01*
X118987257Y-126910500D01*
X118848747Y-127011134D01*
X118720960Y-127153056D01*
X118625473Y-127318444D01*
X118566458Y-127500072D01*
X118565768Y-127506633D01*
X118565768Y-127506635D01*
X118549496Y-127661455D01*
X118546496Y-127690000D01*
X118547186Y-127696565D01*
X118561341Y-127831238D01*
X118566458Y-127879928D01*
X118625473Y-128061556D01*
X118720960Y-128226944D01*
X118848747Y-128368866D01*
X119003248Y-128481118D01*
X119009276Y-128483802D01*
X119009278Y-128483803D01*
X119171681Y-128556109D01*
X119177712Y-128558794D01*
X119268581Y-128578109D01*
X119358056Y-128597128D01*
X119358061Y-128597128D01*
X119364513Y-128598500D01*
X119555487Y-128598500D01*
X119561939Y-128597128D01*
X119561944Y-128597128D01*
X119651419Y-128578109D01*
X119742288Y-128558794D01*
X119748319Y-128556109D01*
X119910722Y-128483803D01*
X119910724Y-128483802D01*
X119916752Y-128481118D01*
X119969578Y-128442738D01*
X120059840Y-128377158D01*
X120071253Y-128368866D01*
X120075664Y-128363967D01*
X120075673Y-128363959D01*
X120115082Y-128320190D01*
X120175528Y-128282950D01*
X120208718Y-128278500D01*
X137492462Y-128278500D01*
X137560583Y-128298502D01*
X137607076Y-128352158D01*
X137611986Y-128364624D01*
X137614697Y-128372749D01*
X137638450Y-128443946D01*
X137731522Y-128594348D01*
X137856697Y-128719305D01*
X137862927Y-128723145D01*
X137862928Y-128723146D01*
X138000090Y-128807694D01*
X138007262Y-128812115D01*
X138023142Y-128817382D01*
X138168611Y-128865632D01*
X138168613Y-128865632D01*
X138175139Y-128867797D01*
X138181975Y-128868497D01*
X138181978Y-128868498D01*
X138225031Y-128872909D01*
X138279600Y-128878500D01*
X138905400Y-128878500D01*
X138908646Y-128878163D01*
X138908650Y-128878163D01*
X139004308Y-128868238D01*
X139004312Y-128868237D01*
X139011166Y-128867526D01*
X139017702Y-128865345D01*
X139017704Y-128865345D01*
X139149806Y-128821272D01*
X139178946Y-128811550D01*
X139329348Y-128718478D01*
X139415784Y-128631891D01*
X139478066Y-128597812D01*
X139548886Y-128602815D01*
X139593975Y-128631736D01*
X139632999Y-128670692D01*
X139681697Y-128719305D01*
X139687927Y-128723145D01*
X139687928Y-128723146D01*
X139825090Y-128807694D01*
X139832262Y-128812115D01*
X139848142Y-128817382D01*
X139993611Y-128865632D01*
X139993613Y-128865632D01*
X140000139Y-128867797D01*
X140006975Y-128868497D01*
X140006978Y-128868498D01*
X140050031Y-128872909D01*
X140104600Y-128878500D01*
X140730400Y-128878500D01*
X140733646Y-128878163D01*
X140733650Y-128878163D01*
X140829308Y-128868238D01*
X140829312Y-128868237D01*
X140836166Y-128867526D01*
X140842702Y-128865345D01*
X140842704Y-128865345D01*
X140974806Y-128821272D01*
X141003946Y-128811550D01*
X141154348Y-128718478D01*
X141170114Y-128702685D01*
X141274134Y-128598483D01*
X141279305Y-128593303D01*
X141286170Y-128582166D01*
X141368275Y-128448968D01*
X141368276Y-128448966D01*
X141372115Y-128442738D01*
X141389663Y-128389832D01*
X141430094Y-128331473D01*
X141495658Y-128304236D01*
X141509256Y-128303500D01*
X141996640Y-128303500D01*
X142064761Y-128323502D01*
X142111254Y-128377158D01*
X142121358Y-128447432D01*
X142108230Y-128483654D01*
X142109820Y-128484395D01*
X142106725Y-128491032D01*
X142102885Y-128497262D01*
X142083366Y-128556109D01*
X142073097Y-128587072D01*
X142047203Y-128665139D01*
X142036500Y-128769600D01*
X142036500Y-129720400D01*
X142036837Y-129723646D01*
X142036837Y-129723650D01*
X142044875Y-129801113D01*
X142047474Y-129826166D01*
X142049655Y-129832702D01*
X142049655Y-129832704D01*
X142066304Y-129882606D01*
X142103450Y-129993946D01*
X142196522Y-130144348D01*
X142321697Y-130269305D01*
X142327927Y-130273145D01*
X142327928Y-130273146D01*
X142384116Y-130307781D01*
X142431610Y-130360554D01*
X142444000Y-130415041D01*
X142444000Y-132574990D01*
X142423998Y-132643111D01*
X142384304Y-132682133D01*
X142320652Y-132721522D01*
X142195695Y-132846697D01*
X142191855Y-132852927D01*
X142191854Y-132852928D01*
X142114067Y-132979122D01*
X142102885Y-132997262D01*
X142047203Y-133165139D01*
X142036500Y-133269600D01*
X142036500Y-134220400D01*
X142036837Y-134223646D01*
X142036837Y-134223650D01*
X142046450Y-134316293D01*
X142047474Y-134326166D01*
X142049655Y-134332702D01*
X142049655Y-134332704D01*
X142079166Y-134421157D01*
X142103450Y-134493946D01*
X142196522Y-134644348D01*
X142321697Y-134769305D01*
X142327927Y-134773145D01*
X142327928Y-134773146D01*
X142465090Y-134857694D01*
X142472262Y-134862115D01*
X142567585Y-134893732D01*
X142625945Y-134934162D01*
X142653182Y-134999727D01*
X142640649Y-135069608D01*
X142592324Y-135121620D01*
X142527918Y-135139325D01*
X142089120Y-135139325D01*
X142073881Y-135143800D01*
X142072676Y-135145190D01*
X142071005Y-135152873D01*
X142071005Y-138275325D01*
X142051003Y-138343446D01*
X141997347Y-138389939D01*
X141945005Y-138401325D01*
X136609005Y-138401325D01*
X136540884Y-138381323D01*
X136494391Y-138327667D01*
X136483005Y-138275325D01*
X136483005Y-137875210D01*
X136991005Y-137875210D01*
X136995480Y-137890449D01*
X136996870Y-137891654D01*
X137004553Y-137893325D01*
X139004890Y-137893325D01*
X139020129Y-137888850D01*
X139021334Y-137887460D01*
X139023005Y-137879777D01*
X139023005Y-137875210D01*
X139531005Y-137875210D01*
X139535480Y-137890449D01*
X139536870Y-137891654D01*
X139544553Y-137893325D01*
X141544890Y-137893325D01*
X141560129Y-137888850D01*
X141561334Y-137887460D01*
X141563005Y-137879777D01*
X141563005Y-135157441D01*
X141558530Y-135142202D01*
X141557140Y-135140997D01*
X141549457Y-135139326D01*
X140882336Y-135139326D01*
X140875515Y-135139696D01*
X140824653Y-135145220D01*
X140809401Y-135148846D01*
X140688951Y-135194001D01*
X140673356Y-135202539D01*
X140622570Y-135240601D01*
X140556063Y-135265449D01*
X140486681Y-135250396D01*
X140471440Y-135240601D01*
X140420654Y-135202539D01*
X140405059Y-135194001D01*
X140284611Y-135148847D01*
X140269356Y-135145220D01*
X140218491Y-135139694D01*
X140211677Y-135139325D01*
X139549120Y-135139325D01*
X139533881Y-135143800D01*
X139532676Y-135145190D01*
X139531005Y-135152873D01*
X139531005Y-137875210D01*
X139023005Y-137875210D01*
X139023005Y-135157441D01*
X139018530Y-135142202D01*
X139017140Y-135140997D01*
X139009457Y-135139326D01*
X138342336Y-135139326D01*
X138335515Y-135139696D01*
X138284653Y-135145220D01*
X138269401Y-135148846D01*
X138148951Y-135194001D01*
X138133356Y-135202539D01*
X138082570Y-135240601D01*
X138016063Y-135265449D01*
X137946681Y-135250396D01*
X137931440Y-135240601D01*
X137880654Y-135202539D01*
X137865059Y-135194001D01*
X137744611Y-135148847D01*
X137729356Y-135145220D01*
X137678491Y-135139694D01*
X137671677Y-135139325D01*
X137009120Y-135139325D01*
X136993881Y-135143800D01*
X136992676Y-135145190D01*
X136991005Y-135152873D01*
X136991005Y-137875210D01*
X136483005Y-137875210D01*
X136483005Y-135157441D01*
X136478530Y-135142202D01*
X136477140Y-135140997D01*
X136469457Y-135139326D01*
X135802336Y-135139326D01*
X135795515Y-135139696D01*
X135744653Y-135145220D01*
X135729401Y-135148846D01*
X135608951Y-135194001D01*
X135593357Y-135202539D01*
X135542987Y-135240289D01*
X135476481Y-135265137D01*
X135407098Y-135250084D01*
X135391857Y-135240289D01*
X135333710Y-135196710D01*
X135197321Y-135145580D01*
X135135139Y-135138825D01*
X134831505Y-135138825D01*
X134763384Y-135118823D01*
X134716891Y-135065167D01*
X134705505Y-135012825D01*
X134705505Y-130363687D01*
X134725507Y-130295566D01*
X134737869Y-130279377D01*
X134851626Y-130153037D01*
X134851627Y-130153036D01*
X134856045Y-130148129D01*
X134951532Y-129982741D01*
X135010547Y-129801113D01*
X135019374Y-129717134D01*
X135029819Y-129617750D01*
X135030509Y-129611185D01*
X135029515Y-129601725D01*
X135011237Y-129427820D01*
X135011237Y-129427818D01*
X135010547Y-129421257D01*
X134951532Y-129239629D01*
X134856045Y-129074241D01*
X134728258Y-128932319D01*
X134573757Y-128820067D01*
X134567729Y-128817383D01*
X134567727Y-128817382D01*
X134405324Y-128745076D01*
X134405323Y-128745076D01*
X134399293Y-128742391D01*
X134286792Y-128718478D01*
X134218949Y-128704057D01*
X134218944Y-128704057D01*
X134212492Y-128702685D01*
X134021518Y-128702685D01*
X134015066Y-128704057D01*
X134015061Y-128704057D01*
X133947218Y-128718478D01*
X133834717Y-128742391D01*
X133828687Y-128745076D01*
X133828686Y-128745076D01*
X133666283Y-128817382D01*
X133666281Y-128817383D01*
X133660253Y-128820067D01*
X133505752Y-128932319D01*
X133377965Y-129074241D01*
X133282478Y-129239629D01*
X133223463Y-129421257D01*
X133222773Y-129427818D01*
X133222773Y-129427820D01*
X133204495Y-129601725D01*
X133203501Y-129611185D01*
X133204191Y-129617750D01*
X133214637Y-129717134D01*
X133223463Y-129801113D01*
X133282478Y-129982741D01*
X133285781Y-129988463D01*
X133285782Y-129988464D01*
X133352420Y-130103883D01*
X133377965Y-130148129D01*
X133382384Y-130153037D01*
X133382385Y-130153038D01*
X133406142Y-130179423D01*
X133436859Y-130243431D01*
X133438505Y-130263733D01*
X133438505Y-135012825D01*
X133418503Y-135080946D01*
X133364847Y-135127439D01*
X133312505Y-135138825D01*
X133258871Y-135138825D01*
X133196689Y-135145580D01*
X133060300Y-135196710D01*
X133053115Y-135202095D01*
X133053113Y-135202096D01*
X133002570Y-135239976D01*
X132936063Y-135264824D01*
X132866681Y-135249771D01*
X132851440Y-135239976D01*
X132800897Y-135202096D01*
X132800895Y-135202095D01*
X132793710Y-135196710D01*
X132657321Y-135145580D01*
X132595139Y-135138825D01*
X132291505Y-135138825D01*
X132223384Y-135118823D01*
X132176891Y-135065167D01*
X132165505Y-135012825D01*
X132165505Y-130746570D01*
X132185507Y-130678449D01*
X132197869Y-130662260D01*
X132251626Y-130602557D01*
X132251627Y-130602556D01*
X132256045Y-130597649D01*
X132351532Y-130432261D01*
X132410547Y-130250633D01*
X132413158Y-130225797D01*
X132429819Y-130067270D01*
X132430509Y-130060705D01*
X132424020Y-129998968D01*
X132411237Y-129877340D01*
X132411237Y-129877338D01*
X132410547Y-129870777D01*
X132351532Y-129689149D01*
X132256045Y-129523761D01*
X132209981Y-129472601D01*
X132132680Y-129386750D01*
X132132679Y-129386749D01*
X132128258Y-129381839D01*
X131973757Y-129269587D01*
X131967729Y-129266903D01*
X131967727Y-129266902D01*
X131805324Y-129194596D01*
X131805323Y-129194596D01*
X131799293Y-129191911D01*
X131705893Y-129172058D01*
X131618949Y-129153577D01*
X131618944Y-129153577D01*
X131612492Y-129152205D01*
X131421518Y-129152205D01*
X131415066Y-129153577D01*
X131415061Y-129153577D01*
X131328117Y-129172058D01*
X131234717Y-129191911D01*
X131228687Y-129194596D01*
X131228686Y-129194596D01*
X131066283Y-129266902D01*
X131066281Y-129266903D01*
X131060253Y-129269587D01*
X130905752Y-129381839D01*
X130901331Y-129386749D01*
X130901330Y-129386750D01*
X130824030Y-129472601D01*
X130777965Y-129523761D01*
X130682478Y-129689149D01*
X130623463Y-129870777D01*
X130622773Y-129877338D01*
X130622773Y-129877340D01*
X130609990Y-129998968D01*
X130603501Y-130060705D01*
X130604191Y-130067270D01*
X130620853Y-130225797D01*
X130623463Y-130250633D01*
X130682478Y-130432261D01*
X130777965Y-130597649D01*
X130782383Y-130602556D01*
X130782384Y-130602557D01*
X130866141Y-130695578D01*
X130896858Y-130759586D01*
X130898505Y-130779889D01*
X130898505Y-135012825D01*
X130878503Y-135080946D01*
X130824847Y-135127439D01*
X130772505Y-135138825D01*
X130718871Y-135138825D01*
X130656689Y-135145580D01*
X130520300Y-135196710D01*
X130513115Y-135202095D01*
X130513113Y-135202096D01*
X130462570Y-135239976D01*
X130396063Y-135264824D01*
X130326681Y-135249771D01*
X130311440Y-135239976D01*
X130260897Y-135202096D01*
X130260895Y-135202095D01*
X130253710Y-135196710D01*
X130117321Y-135145580D01*
X130055139Y-135138825D01*
X129751505Y-135138825D01*
X129683384Y-135118823D01*
X129636891Y-135065167D01*
X129625505Y-135012825D01*
X129625505Y-131184984D01*
X129645507Y-131116863D01*
X129657869Y-131100674D01*
X129701626Y-131052077D01*
X129701627Y-131052076D01*
X129706045Y-131047169D01*
X129764319Y-130946235D01*
X129798228Y-130887504D01*
X129798229Y-130887503D01*
X129801532Y-130881781D01*
X129860547Y-130700153D01*
X129871321Y-130597649D01*
X129879819Y-130516790D01*
X129880509Y-130510225D01*
X129874841Y-130456293D01*
X129861237Y-130326860D01*
X129861237Y-130326858D01*
X129860547Y-130320297D01*
X129801532Y-130138669D01*
X129706045Y-129973281D01*
X129619660Y-129877340D01*
X129582680Y-129836270D01*
X129582679Y-129836269D01*
X129578258Y-129831359D01*
X129430010Y-129723650D01*
X129429099Y-129722988D01*
X129429098Y-129722987D01*
X129423757Y-129719107D01*
X129417729Y-129716423D01*
X129417727Y-129716422D01*
X129255324Y-129644116D01*
X129255323Y-129644116D01*
X129249293Y-129641431D01*
X129155892Y-129621578D01*
X129068949Y-129603097D01*
X129068944Y-129603097D01*
X129062492Y-129601725D01*
X128871518Y-129601725D01*
X128865066Y-129603097D01*
X128865061Y-129603097D01*
X128778118Y-129621578D01*
X128684717Y-129641431D01*
X128678687Y-129644116D01*
X128678686Y-129644116D01*
X128516283Y-129716422D01*
X128516281Y-129716423D01*
X128510253Y-129719107D01*
X128504912Y-129722987D01*
X128504911Y-129722988D01*
X128504000Y-129723650D01*
X128355752Y-129831359D01*
X128351331Y-129836269D01*
X128351330Y-129836270D01*
X128314351Y-129877340D01*
X128227965Y-129973281D01*
X128132478Y-130138669D01*
X128073463Y-130320297D01*
X128072773Y-130326858D01*
X128072773Y-130326860D01*
X128059169Y-130456293D01*
X128053501Y-130510225D01*
X128054191Y-130516790D01*
X128062690Y-130597649D01*
X128073463Y-130700153D01*
X128132478Y-130881781D01*
X128135781Y-130887503D01*
X128135782Y-130887504D01*
X128169691Y-130946235D01*
X128227965Y-131047169D01*
X128232383Y-131052076D01*
X128232384Y-131052077D01*
X128326141Y-131156205D01*
X128356859Y-131220212D01*
X128358505Y-131240515D01*
X128358505Y-135012825D01*
X128338503Y-135080946D01*
X128284847Y-135127439D01*
X128232505Y-135138825D01*
X128178871Y-135138825D01*
X128116689Y-135145580D01*
X127980300Y-135196710D01*
X127973115Y-135202095D01*
X127973113Y-135202096D01*
X127922570Y-135239976D01*
X127856063Y-135264824D01*
X127786681Y-135249771D01*
X127771440Y-135239976D01*
X127720897Y-135202096D01*
X127720895Y-135202095D01*
X127713710Y-135196710D01*
X127577321Y-135145580D01*
X127515139Y-135138825D01*
X127211505Y-135138825D01*
X127143384Y-135118823D01*
X127096891Y-135065167D01*
X127085505Y-135012825D01*
X127085505Y-131678929D01*
X127105507Y-131610808D01*
X127117869Y-131594618D01*
X127137521Y-131572793D01*
X127184094Y-131521068D01*
X127201626Y-131501597D01*
X127201627Y-131501596D01*
X127206045Y-131496689D01*
X127301532Y-131331301D01*
X127360547Y-131149673D01*
X127363996Y-131116863D01*
X127379819Y-130966310D01*
X127380509Y-130959745D01*
X127372315Y-130881781D01*
X127361237Y-130776380D01*
X127361237Y-130776378D01*
X127360547Y-130769817D01*
X127301532Y-130588189D01*
X127206045Y-130422801D01*
X127148102Y-130358448D01*
X127082680Y-130285790D01*
X127082679Y-130285789D01*
X127078258Y-130280879D01*
X126948935Y-130186920D01*
X126929099Y-130172508D01*
X126929098Y-130172507D01*
X126923757Y-130168627D01*
X126917729Y-130165943D01*
X126917727Y-130165942D01*
X126755324Y-130093636D01*
X126755323Y-130093636D01*
X126749293Y-130090951D01*
X126655893Y-130071098D01*
X126568949Y-130052617D01*
X126568944Y-130052617D01*
X126562492Y-130051245D01*
X126371518Y-130051245D01*
X126365066Y-130052617D01*
X126365061Y-130052617D01*
X126278117Y-130071098D01*
X126184717Y-130090951D01*
X126178687Y-130093636D01*
X126178686Y-130093636D01*
X126016283Y-130165942D01*
X126016281Y-130165943D01*
X126010253Y-130168627D01*
X126004912Y-130172507D01*
X126004911Y-130172508D01*
X125985075Y-130186920D01*
X125855752Y-130280879D01*
X125851331Y-130285789D01*
X125851330Y-130285790D01*
X125785909Y-130358448D01*
X125727965Y-130422801D01*
X125632478Y-130588189D01*
X125573463Y-130769817D01*
X125572773Y-130776378D01*
X125572773Y-130776380D01*
X125561695Y-130881781D01*
X125553501Y-130959745D01*
X125554191Y-130966310D01*
X125570015Y-131116863D01*
X125573463Y-131149673D01*
X125632478Y-131331301D01*
X125727965Y-131496689D01*
X125732383Y-131501596D01*
X125732384Y-131501597D01*
X125786141Y-131561300D01*
X125816858Y-131625307D01*
X125818505Y-131645610D01*
X125818505Y-135012825D01*
X125798503Y-135080946D01*
X125744847Y-135127439D01*
X125692505Y-135138825D01*
X125638871Y-135138825D01*
X125576689Y-135145580D01*
X125440300Y-135196710D01*
X125433115Y-135202095D01*
X125433113Y-135202096D01*
X125382570Y-135239976D01*
X125316063Y-135264824D01*
X125246681Y-135249771D01*
X125231440Y-135239976D01*
X125180897Y-135202096D01*
X125180895Y-135202095D01*
X125173710Y-135196710D01*
X125037321Y-135145580D01*
X124975139Y-135138825D01*
X124671505Y-135138825D01*
X124603384Y-135118823D01*
X124556891Y-135065167D01*
X124545505Y-135012825D01*
X124545505Y-132117342D01*
X124565507Y-132049221D01*
X124577863Y-132033039D01*
X124656045Y-131946209D01*
X124751532Y-131780821D01*
X124810547Y-131599193D01*
X124821321Y-131496689D01*
X124829819Y-131415830D01*
X124830509Y-131409265D01*
X124821945Y-131327780D01*
X124811237Y-131225900D01*
X124811237Y-131225898D01*
X124810547Y-131219337D01*
X124751532Y-131037709D01*
X124656045Y-130872321D01*
X124569660Y-130776380D01*
X124532680Y-130735310D01*
X124532679Y-130735309D01*
X124528258Y-130730399D01*
X124373757Y-130618147D01*
X124367729Y-130615463D01*
X124367727Y-130615462D01*
X124205324Y-130543156D01*
X124205323Y-130543156D01*
X124199293Y-130540471D01*
X124105893Y-130520618D01*
X124018949Y-130502137D01*
X124018944Y-130502137D01*
X124012492Y-130500765D01*
X123821518Y-130500765D01*
X123815066Y-130502137D01*
X123815061Y-130502137D01*
X123728117Y-130520618D01*
X123634717Y-130540471D01*
X123628687Y-130543156D01*
X123628686Y-130543156D01*
X123466283Y-130615462D01*
X123466281Y-130615463D01*
X123460253Y-130618147D01*
X123305752Y-130730399D01*
X123301331Y-130735309D01*
X123301330Y-130735310D01*
X123264351Y-130776380D01*
X123177965Y-130872321D01*
X123082478Y-131037709D01*
X123023463Y-131219337D01*
X123022773Y-131225898D01*
X123022773Y-131225900D01*
X123012065Y-131327780D01*
X123003501Y-131409265D01*
X123004191Y-131415830D01*
X123012690Y-131496689D01*
X123023463Y-131599193D01*
X123082478Y-131780821D01*
X123177965Y-131946209D01*
X123246142Y-132021927D01*
X123276858Y-132085933D01*
X123278505Y-132106236D01*
X123278505Y-135012825D01*
X123258503Y-135080946D01*
X123204847Y-135127439D01*
X123152505Y-135138825D01*
X123098871Y-135138825D01*
X123036689Y-135145580D01*
X122900300Y-135196710D01*
X122893115Y-135202095D01*
X122893113Y-135202096D01*
X122842570Y-135239976D01*
X122776063Y-135264824D01*
X122706681Y-135249771D01*
X122691440Y-135239976D01*
X122640897Y-135202096D01*
X122640895Y-135202095D01*
X122633710Y-135196710D01*
X122497321Y-135145580D01*
X122435139Y-135138825D01*
X122131505Y-135138825D01*
X122063384Y-135118823D01*
X122016891Y-135065167D01*
X122005505Y-135012825D01*
X122005505Y-132555756D01*
X122025507Y-132487635D01*
X122037863Y-132471452D01*
X122106045Y-132395729D01*
X122201532Y-132230341D01*
X122260547Y-132048713D01*
X122263363Y-132021925D01*
X122279819Y-131865350D01*
X122280509Y-131858785D01*
X122275753Y-131813531D01*
X122261237Y-131675420D01*
X122261237Y-131675418D01*
X122260547Y-131668857D01*
X122201532Y-131487229D01*
X122106045Y-131321841D01*
X122061291Y-131272136D01*
X121982680Y-131184830D01*
X121982679Y-131184829D01*
X121978258Y-131179919D01*
X121823757Y-131067667D01*
X121817729Y-131064983D01*
X121817727Y-131064982D01*
X121655324Y-130992676D01*
X121655323Y-130992676D01*
X121649293Y-130989991D01*
X121555892Y-130970138D01*
X121468949Y-130951657D01*
X121468944Y-130951657D01*
X121462492Y-130950285D01*
X121271518Y-130950285D01*
X121265066Y-130951657D01*
X121265061Y-130951657D01*
X121178118Y-130970138D01*
X121084717Y-130989991D01*
X121078687Y-130992676D01*
X121078686Y-130992676D01*
X120916283Y-131064982D01*
X120916281Y-131064983D01*
X120910253Y-131067667D01*
X120755752Y-131179919D01*
X120751331Y-131184829D01*
X120751330Y-131184830D01*
X120672720Y-131272136D01*
X120627965Y-131321841D01*
X120532478Y-131487229D01*
X120473463Y-131668857D01*
X120472773Y-131675418D01*
X120472773Y-131675420D01*
X120458257Y-131813531D01*
X120453501Y-131858785D01*
X120454191Y-131865350D01*
X120470648Y-132021925D01*
X120473463Y-132048713D01*
X120532478Y-132230341D01*
X120627965Y-132395729D01*
X120706142Y-132482554D01*
X120736858Y-132546559D01*
X120738505Y-132566862D01*
X120738505Y-135012825D01*
X120718503Y-135080946D01*
X120664847Y-135127439D01*
X120612505Y-135138825D01*
X120558871Y-135138825D01*
X120496689Y-135145580D01*
X120360300Y-135196710D01*
X120353115Y-135202095D01*
X120353113Y-135202096D01*
X120302570Y-135239976D01*
X120236063Y-135264824D01*
X120166681Y-135249771D01*
X120151440Y-135239976D01*
X120100897Y-135202096D01*
X120100895Y-135202095D01*
X120093710Y-135196710D01*
X119957321Y-135145580D01*
X119895139Y-135138825D01*
X119591505Y-135138825D01*
X119523384Y-135118823D01*
X119476891Y-135065167D01*
X119465505Y-135012825D01*
X119465505Y-132994170D01*
X119485507Y-132926049D01*
X119497869Y-132909860D01*
X119551626Y-132850157D01*
X119551627Y-132850156D01*
X119556045Y-132845249D01*
X119627722Y-132721101D01*
X119648228Y-132685584D01*
X119648229Y-132685583D01*
X119651532Y-132679861D01*
X119710547Y-132498233D01*
X119713363Y-132471445D01*
X119729819Y-132314870D01*
X119730509Y-132308305D01*
X119721654Y-132224056D01*
X119711237Y-132124940D01*
X119711237Y-132124938D01*
X119710547Y-132118377D01*
X119651532Y-131936749D01*
X119556045Y-131771361D01*
X119499485Y-131708544D01*
X119432680Y-131634350D01*
X119432679Y-131634349D01*
X119428258Y-131629439D01*
X119273757Y-131517187D01*
X119267729Y-131514503D01*
X119267727Y-131514502D01*
X119105324Y-131442196D01*
X119105323Y-131442196D01*
X119099293Y-131439511D01*
X119005893Y-131419658D01*
X118918949Y-131401177D01*
X118918944Y-131401177D01*
X118912492Y-131399805D01*
X118721518Y-131399805D01*
X118715066Y-131401177D01*
X118715061Y-131401177D01*
X118628117Y-131419658D01*
X118534717Y-131439511D01*
X118528687Y-131442196D01*
X118528686Y-131442196D01*
X118366283Y-131514502D01*
X118366281Y-131514503D01*
X118360253Y-131517187D01*
X118205752Y-131629439D01*
X118201331Y-131634349D01*
X118201330Y-131634350D01*
X118134526Y-131708544D01*
X118077965Y-131771361D01*
X117982478Y-131936749D01*
X117923463Y-132118377D01*
X117922773Y-132124938D01*
X117922773Y-132124940D01*
X117912356Y-132224056D01*
X117903501Y-132308305D01*
X117904191Y-132314870D01*
X117920648Y-132471445D01*
X117923463Y-132498233D01*
X117982478Y-132679861D01*
X117985781Y-132685583D01*
X117985782Y-132685584D01*
X118006288Y-132721101D01*
X118077965Y-132845249D01*
X118082383Y-132850156D01*
X118082384Y-132850157D01*
X118103976Y-132874137D01*
X118165214Y-132942148D01*
X118166141Y-132943178D01*
X118196858Y-133007186D01*
X118198505Y-133027489D01*
X118198505Y-135012825D01*
X118178503Y-135080946D01*
X118124847Y-135127439D01*
X118072505Y-135138825D01*
X118018871Y-135138825D01*
X117956689Y-135145580D01*
X117820300Y-135196710D01*
X117813115Y-135202095D01*
X117813113Y-135202096D01*
X117762570Y-135239976D01*
X117696063Y-135264824D01*
X117626681Y-135249771D01*
X117611440Y-135239976D01*
X117560897Y-135202096D01*
X117560895Y-135202095D01*
X117553710Y-135196710D01*
X117417321Y-135145580D01*
X117355139Y-135138825D01*
X117051505Y-135138825D01*
X116983384Y-135118823D01*
X116936891Y-135065167D01*
X116925505Y-135012825D01*
X116925505Y-133440380D01*
X116945507Y-133372259D01*
X116957869Y-133356070D01*
X117076626Y-133224177D01*
X117076627Y-133224176D01*
X117081045Y-133219269D01*
X117176532Y-133053881D01*
X117235547Y-132872253D01*
X117237870Y-132850157D01*
X117254819Y-132688890D01*
X117255509Y-132682325D01*
X117251606Y-132645192D01*
X117236237Y-132498960D01*
X117236237Y-132498958D01*
X117235547Y-132492397D01*
X117176532Y-132310769D01*
X117081045Y-132145381D01*
X117056100Y-132117676D01*
X116957680Y-132008370D01*
X116957679Y-132008369D01*
X116953258Y-132003459D01*
X116798757Y-131891207D01*
X116792729Y-131888523D01*
X116792727Y-131888522D01*
X116630324Y-131816216D01*
X116630323Y-131816216D01*
X116624293Y-131813531D01*
X116530892Y-131793678D01*
X116443949Y-131775197D01*
X116443944Y-131775197D01*
X116437492Y-131773825D01*
X116246518Y-131773825D01*
X116240066Y-131775197D01*
X116240061Y-131775197D01*
X116153118Y-131793678D01*
X116059717Y-131813531D01*
X116053687Y-131816216D01*
X116053686Y-131816216D01*
X115891283Y-131888522D01*
X115891281Y-131888523D01*
X115885253Y-131891207D01*
X115730752Y-132003459D01*
X115726331Y-132008369D01*
X115726330Y-132008370D01*
X115627911Y-132117676D01*
X115602965Y-132145381D01*
X115507478Y-132310769D01*
X115448463Y-132492397D01*
X115447773Y-132498958D01*
X115447773Y-132498960D01*
X115432404Y-132645192D01*
X115428501Y-132682325D01*
X115429191Y-132688890D01*
X115446141Y-132850157D01*
X115448463Y-132872253D01*
X115507478Y-133053881D01*
X115510781Y-133059603D01*
X115510782Y-133059604D01*
X115571713Y-133165139D01*
X115602965Y-133219269D01*
X115607384Y-133224177D01*
X115607388Y-133224182D01*
X115626140Y-133245008D01*
X115656858Y-133309015D01*
X115658505Y-133329319D01*
X115658505Y-135012825D01*
X115638503Y-135080946D01*
X115584847Y-135127439D01*
X115532505Y-135138825D01*
X115478871Y-135138825D01*
X115416689Y-135145580D01*
X115280300Y-135196710D01*
X115273115Y-135202095D01*
X115273113Y-135202096D01*
X115222570Y-135239976D01*
X115156063Y-135264824D01*
X115086681Y-135249771D01*
X115071440Y-135239976D01*
X115020897Y-135202096D01*
X115020895Y-135202095D01*
X115013710Y-135196710D01*
X114877321Y-135145580D01*
X114815139Y-135138825D01*
X114511505Y-135138825D01*
X114443384Y-135118823D01*
X114396891Y-135065167D01*
X114385505Y-135012825D01*
X114385505Y-134201509D01*
X114405507Y-134133388D01*
X114417869Y-134117198D01*
X114425668Y-134108537D01*
X114506045Y-134019269D01*
X114586464Y-133879979D01*
X114598228Y-133859604D01*
X114598229Y-133859603D01*
X114601532Y-133853881D01*
X114660547Y-133672253D01*
X114667543Y-133605695D01*
X114679819Y-133488890D01*
X114680509Y-133482325D01*
X114667922Y-133362563D01*
X114661237Y-133298960D01*
X114661237Y-133298958D01*
X114660547Y-133292397D01*
X114601532Y-133110769D01*
X114506045Y-132945381D01*
X114488639Y-132926049D01*
X114382680Y-132808370D01*
X114382679Y-132808369D01*
X114378258Y-132803459D01*
X114223757Y-132691207D01*
X114217729Y-132688523D01*
X114217727Y-132688522D01*
X114055324Y-132616216D01*
X114055323Y-132616216D01*
X114049293Y-132613531D01*
X113955893Y-132593678D01*
X113868949Y-132575197D01*
X113868944Y-132575197D01*
X113862492Y-132573825D01*
X113671518Y-132573825D01*
X113665066Y-132575197D01*
X113665061Y-132575197D01*
X113578117Y-132593678D01*
X113484717Y-132613531D01*
X113478687Y-132616216D01*
X113478686Y-132616216D01*
X113316283Y-132688522D01*
X113316281Y-132688523D01*
X113310253Y-132691207D01*
X113155752Y-132803459D01*
X113151331Y-132808369D01*
X113151330Y-132808370D01*
X113045372Y-132926049D01*
X113027965Y-132945381D01*
X112932478Y-133110769D01*
X112873463Y-133292397D01*
X112872773Y-133298958D01*
X112872773Y-133298960D01*
X112866088Y-133362563D01*
X112853501Y-133482325D01*
X112854191Y-133488890D01*
X112866468Y-133605695D01*
X112873463Y-133672253D01*
X112932478Y-133853881D01*
X112935781Y-133859603D01*
X112935782Y-133859604D01*
X112947546Y-133879979D01*
X113027965Y-134019269D01*
X113032383Y-134024176D01*
X113032384Y-134024177D01*
X113086141Y-134083880D01*
X113116858Y-134147887D01*
X113118505Y-134168190D01*
X113118505Y-135012825D01*
X113098503Y-135080946D01*
X113044847Y-135127439D01*
X112992505Y-135138825D01*
X112938871Y-135138825D01*
X112876689Y-135145580D01*
X112740300Y-135196710D01*
X112623744Y-135284064D01*
X112536390Y-135400620D01*
X112485260Y-135537009D01*
X112478505Y-135599191D01*
X112478505Y-140277825D01*
X112458503Y-140345946D01*
X112404847Y-140392439D01*
X112352505Y-140403825D01*
X111246370Y-140403825D01*
X111226985Y-140402325D01*
X111212152Y-140400015D01*
X111212148Y-140400015D01*
X111203279Y-140398634D01*
X111192253Y-140400076D01*
X111163569Y-140400532D01*
X111080133Y-140392315D01*
X111047134Y-140389065D01*
X111022914Y-140384248D01*
X110919829Y-140352978D01*
X110890670Y-140344133D01*
X110867851Y-140334681D01*
X110745977Y-140269540D01*
X110725440Y-140255817D01*
X110724599Y-140255127D01*
X110618621Y-140168155D01*
X110601161Y-140150696D01*
X110513492Y-140043874D01*
X110499770Y-140023337D01*
X110434626Y-139901465D01*
X110425173Y-139878646D01*
X110403695Y-139807845D01*
X110385057Y-139746408D01*
X110380238Y-139722184D01*
X110369445Y-139612621D01*
X110369902Y-139596444D01*
X110369205Y-139596435D01*
X110369314Y-139587466D01*
X110370696Y-139578591D01*
X110366569Y-139547035D01*
X110365505Y-139530695D01*
X110365505Y-133424981D01*
X110385507Y-133356860D01*
X110413361Y-133326141D01*
X110553584Y-133215291D01*
X110783275Y-133004209D01*
X110921215Y-132877445D01*
X110921220Y-132877441D01*
X110922947Y-132875853D01*
X111266109Y-132509948D01*
X111581178Y-132119590D01*
X111623840Y-132057870D01*
X111865093Y-131708849D01*
X111865098Y-131708842D01*
X111866417Y-131706933D01*
X111941278Y-131579328D01*
X112119061Y-131276285D01*
X112119064Y-131276280D01*
X112120254Y-131274251D01*
X112234521Y-131041451D01*
X112340258Y-130826029D01*
X112340260Y-130826024D01*
X112341289Y-130823928D01*
X112528304Y-130358448D01*
X112646377Y-129986998D01*
X112679560Y-129882606D01*
X112679561Y-129882602D01*
X112680269Y-129880375D01*
X112796346Y-129392345D01*
X112835775Y-129146847D01*
X112875524Y-128899360D01*
X112875525Y-128899351D01*
X112875895Y-128897048D01*
X112877476Y-128878500D01*
X112918279Y-128399538D01*
X112918477Y-128397214D01*
X112918504Y-128394749D01*
X112923833Y-127897930D01*
X112923858Y-127895599D01*
X112923710Y-127893272D01*
X112892156Y-127397287D01*
X112892155Y-127397278D01*
X112892008Y-127394966D01*
X112887029Y-127359056D01*
X112843287Y-127043628D01*
X112823103Y-126898077D01*
X112821587Y-126891032D01*
X112718016Y-126409962D01*
X112718014Y-126409953D01*
X112717522Y-126407669D01*
X112689812Y-126313545D01*
X112576508Y-125928690D01*
X112576505Y-125928681D01*
X112575847Y-125926446D01*
X112519763Y-125777705D01*
X112399685Y-125459249D01*
X112398860Y-125457061D01*
X112397874Y-125454938D01*
X112188521Y-125004220D01*
X112188518Y-125004214D01*
X112187536Y-125002100D01*
X112182052Y-124992274D01*
X111972232Y-124616373D01*
X111943039Y-124564072D01*
X111937400Y-124555527D01*
X111827924Y-124389649D01*
X111666719Y-124145391D01*
X111593840Y-124051024D01*
X111470911Y-123891852D01*
X111360096Y-123748365D01*
X111024863Y-123375182D01*
X110662866Y-123027900D01*
X110631848Y-123002279D01*
X110277917Y-122709932D01*
X110277903Y-122709921D01*
X110276100Y-122708432D01*
X109866699Y-122418539D01*
X109436918Y-122159820D01*
X109352703Y-122117294D01*
X109300913Y-122068735D01*
X109283500Y-122004822D01*
X109283500Y-115993250D01*
X109285246Y-115972345D01*
X109287770Y-115957344D01*
X109287770Y-115957341D01*
X109288576Y-115952552D01*
X109288729Y-115940000D01*
X109287788Y-115933429D01*
X109287123Y-115903218D01*
X109298261Y-115790131D01*
X109303079Y-115765907D01*
X109343194Y-115633666D01*
X109352643Y-115610856D01*
X109417783Y-115488988D01*
X109431506Y-115468450D01*
X109519169Y-115361634D01*
X109536634Y-115344169D01*
X109643450Y-115256506D01*
X109663988Y-115242783D01*
X109785856Y-115177643D01*
X109808669Y-115168193D01*
X109940909Y-115128079D01*
X109965132Y-115123261D01*
X110074809Y-115112459D01*
X110090868Y-115112909D01*
X110090877Y-115112200D01*
X110099853Y-115112310D01*
X110108724Y-115113691D01*
X110117626Y-115112527D01*
X110117628Y-115112527D01*
X110134059Y-115110378D01*
X110140286Y-115109564D01*
X110156621Y-115108500D01*
X111270500Y-115108500D01*
X111338621Y-115128502D01*
G37*
%TD.AperFunction*%
%TA.AperFunction,Conductor*%
G36*
X176205018Y-115110000D02*
G01*
X176219852Y-115112310D01*
X176219855Y-115112310D01*
X176228724Y-115113691D01*
X176238659Y-115112392D01*
X176239746Y-115112250D01*
X176268431Y-115111793D01*
X176346987Y-115119530D01*
X176384869Y-115123261D01*
X176409087Y-115128077D01*
X176541334Y-115168194D01*
X176564144Y-115177643D01*
X176686012Y-115242783D01*
X176706550Y-115256506D01*
X176813366Y-115344169D01*
X176830831Y-115361634D01*
X176918494Y-115468450D01*
X176932217Y-115488988D01*
X176997357Y-115610856D01*
X177006807Y-115633669D01*
X177026384Y-115698205D01*
X177046921Y-115765907D01*
X177051739Y-115790132D01*
X177062541Y-115899809D01*
X177062091Y-115915868D01*
X177062800Y-115915877D01*
X177062690Y-115924853D01*
X177061309Y-115933724D01*
X177062473Y-115942626D01*
X177062473Y-115942628D01*
X177065436Y-115965283D01*
X177066500Y-115981621D01*
X177066500Y-122161764D01*
X177046498Y-122229885D01*
X177036921Y-122242875D01*
X176970481Y-122321852D01*
X176850935Y-122463955D01*
X176845793Y-122470067D01*
X176527199Y-122907182D01*
X176375874Y-123148410D01*
X176244264Y-123358212D01*
X176239762Y-123365388D01*
X175984872Y-123842466D01*
X175983983Y-123844451D01*
X175983976Y-123844465D01*
X175799138Y-124257128D01*
X175763762Y-124336108D01*
X175758542Y-124350339D01*
X175598071Y-124787851D01*
X175577503Y-124843927D01*
X175576897Y-124846018D01*
X175576893Y-124846031D01*
X175448657Y-125288689D01*
X175426995Y-125363465D01*
X175312967Y-125892209D01*
X175312657Y-125894364D01*
X175312656Y-125894370D01*
X175268664Y-126200263D01*
X175235970Y-126427600D01*
X175235812Y-126429758D01*
X175235810Y-126429773D01*
X175208816Y-126797572D01*
X175196377Y-126967049D01*
X175194379Y-127507944D01*
X175194522Y-127510108D01*
X175194522Y-127510116D01*
X175195791Y-127529352D01*
X175229987Y-128047671D01*
X175239558Y-128117901D01*
X175292057Y-128503118D01*
X175303027Y-128583616D01*
X175413146Y-129113188D01*
X175413737Y-129115286D01*
X175413738Y-129115290D01*
X175458298Y-129273468D01*
X175559812Y-129633823D01*
X175560547Y-129635874D01*
X175560550Y-129635883D01*
X175686924Y-129988464D01*
X175742315Y-130143004D01*
X175743194Y-130145005D01*
X175743194Y-130145006D01*
X175935272Y-130582466D01*
X175959772Y-130638266D01*
X175960785Y-130640196D01*
X176210108Y-131115266D01*
X176210116Y-131115281D01*
X176211131Y-131117214D01*
X176495176Y-131577530D01*
X176496463Y-131579323D01*
X176496466Y-131579328D01*
X176809245Y-132015193D01*
X176809254Y-132015204D01*
X176810533Y-132016987D01*
X176921675Y-132151099D01*
X177128470Y-132400632D01*
X177155675Y-132433460D01*
X177157174Y-132435032D01*
X177157181Y-132435040D01*
X177429546Y-132720695D01*
X177528933Y-132824932D01*
X177530554Y-132826411D01*
X177530555Y-132826412D01*
X177772968Y-133047596D01*
X177928502Y-133189510D01*
X178100756Y-133325999D01*
X178141726Y-133383982D01*
X178148505Y-133424755D01*
X178148505Y-139519136D01*
X178147076Y-139538060D01*
X178143294Y-139562956D01*
X178144490Y-139571845D01*
X178144490Y-139571847D01*
X178144772Y-139573939D01*
X178145332Y-139602656D01*
X178134235Y-139719486D01*
X178129484Y-139743783D01*
X178089677Y-139876451D01*
X178080266Y-139899352D01*
X178015284Y-140021674D01*
X178001580Y-140042287D01*
X177993816Y-140051789D01*
X177913934Y-140149542D01*
X177896460Y-140167081D01*
X177789531Y-140255127D01*
X177768966Y-140268910D01*
X177707925Y-140301628D01*
X177646886Y-140334345D01*
X177624021Y-140343841D01*
X177491500Y-140384142D01*
X177467220Y-140388983D01*
X177357145Y-140399851D01*
X177341136Y-140399402D01*
X177341127Y-140400125D01*
X177332150Y-140400015D01*
X177323279Y-140398634D01*
X177314378Y-140399798D01*
X177314374Y-140399798D01*
X177291720Y-140402761D01*
X177275382Y-140403825D01*
X176361505Y-140403825D01*
X176293384Y-140383823D01*
X176246891Y-140330167D01*
X176235505Y-140277825D01*
X176235505Y-135599191D01*
X176228750Y-135537009D01*
X176177620Y-135400620D01*
X176090266Y-135284064D01*
X175973710Y-135196710D01*
X175837321Y-135145580D01*
X175775139Y-135138825D01*
X175471505Y-135138825D01*
X175403384Y-135118823D01*
X175356891Y-135065167D01*
X175345505Y-135012825D01*
X175345505Y-134856092D01*
X175346032Y-134844909D01*
X175347707Y-134837416D01*
X175345566Y-134769305D01*
X175345505Y-134765380D01*
X175345505Y-134737469D01*
X175345008Y-134733532D01*
X175345007Y-134733521D01*
X175345000Y-134733469D01*
X175344067Y-134721626D01*
X175342927Y-134685354D01*
X175342678Y-134677435D01*
X175337027Y-134657983D01*
X175333019Y-134638631D01*
X175331472Y-134626388D01*
X175330479Y-134618528D01*
X175327561Y-134611157D01*
X175314205Y-134577422D01*
X175310360Y-134566195D01*
X175303757Y-134543469D01*
X175298023Y-134523732D01*
X175293989Y-134516910D01*
X175293986Y-134516904D01*
X175287711Y-134506293D01*
X175279015Y-134488543D01*
X175274477Y-134477081D01*
X175274474Y-134477076D01*
X175271557Y-134469708D01*
X175245578Y-134433950D01*
X175239062Y-134424032D01*
X175220580Y-134392782D01*
X175216547Y-134385962D01*
X175202223Y-134371638D01*
X175189381Y-134356603D01*
X175185765Y-134351626D01*
X175177477Y-134340218D01*
X175143411Y-134312036D01*
X175134632Y-134304047D01*
X171295657Y-130465072D01*
X171288117Y-130456786D01*
X171284005Y-130450307D01*
X171234353Y-130403681D01*
X171231512Y-130400927D01*
X171211775Y-130381190D01*
X171208578Y-130378710D01*
X171199556Y-130371005D01*
X171191763Y-130363687D01*
X171167326Y-130340739D01*
X171160380Y-130336920D01*
X171160377Y-130336918D01*
X171149571Y-130330977D01*
X171133052Y-130320126D01*
X171131572Y-130318978D01*
X171117046Y-130307711D01*
X171109777Y-130304566D01*
X171109773Y-130304563D01*
X171076468Y-130290151D01*
X171065818Y-130284934D01*
X171027065Y-130263630D01*
X171007442Y-130258592D01*
X170988739Y-130252188D01*
X170977425Y-130247292D01*
X170977424Y-130247292D01*
X170970150Y-130244144D01*
X170962327Y-130242905D01*
X170962317Y-130242902D01*
X170926481Y-130237226D01*
X170914861Y-130234820D01*
X170879716Y-130225797D01*
X170879715Y-130225797D01*
X170872035Y-130223825D01*
X170851781Y-130223825D01*
X170832070Y-130222274D01*
X170819891Y-130220345D01*
X170812062Y-130219105D01*
X170804170Y-130219851D01*
X170768044Y-130223266D01*
X170756186Y-130223825D01*
X158938753Y-130223825D01*
X158870632Y-130203823D01*
X158849658Y-130186920D01*
X152324312Y-123661573D01*
X152290286Y-123599261D01*
X152287407Y-123572478D01*
X152287407Y-123480770D01*
X152287934Y-123469587D01*
X152289609Y-123462094D01*
X152288793Y-123436116D01*
X152287469Y-123394017D01*
X152287407Y-123390058D01*
X152287407Y-123362147D01*
X152286902Y-123358147D01*
X152285969Y-123346304D01*
X152285777Y-123340175D01*
X152284580Y-123302114D01*
X152278928Y-123282660D01*
X152274920Y-123263303D01*
X152273375Y-123251073D01*
X152273375Y-123251072D01*
X152272381Y-123243206D01*
X152269462Y-123235833D01*
X152256103Y-123202091D01*
X152252258Y-123190861D01*
X152242136Y-123156020D01*
X152242136Y-123156019D01*
X152239925Y-123148410D01*
X152235892Y-123141591D01*
X152235890Y-123141586D01*
X152229614Y-123130975D01*
X152220919Y-123113227D01*
X152213459Y-123094386D01*
X152198663Y-123074020D01*
X152187471Y-123058616D01*
X152180955Y-123048696D01*
X152162487Y-123017468D01*
X152162485Y-123017465D01*
X152158449Y-123010641D01*
X152144128Y-122996320D01*
X152131287Y-122981286D01*
X152124038Y-122971309D01*
X152119379Y-122964896D01*
X152085302Y-122936705D01*
X152076523Y-122928715D01*
X150655556Y-121507747D01*
X150648016Y-121499461D01*
X150643904Y-121492982D01*
X150594252Y-121446356D01*
X150591411Y-121443602D01*
X150571674Y-121423865D01*
X150568477Y-121421385D01*
X150559455Y-121413680D01*
X150533004Y-121388841D01*
X150527225Y-121383414D01*
X150520279Y-121379595D01*
X150520276Y-121379593D01*
X150509470Y-121373652D01*
X150492951Y-121362801D01*
X150486952Y-121358148D01*
X150476945Y-121350386D01*
X150469676Y-121347241D01*
X150469672Y-121347238D01*
X150436367Y-121332826D01*
X150425717Y-121327609D01*
X150386964Y-121306305D01*
X150367341Y-121301267D01*
X150348638Y-121294863D01*
X150337324Y-121289967D01*
X150337323Y-121289967D01*
X150330049Y-121286819D01*
X150322226Y-121285580D01*
X150322216Y-121285577D01*
X150286380Y-121279901D01*
X150274760Y-121277495D01*
X150239615Y-121268472D01*
X150239614Y-121268472D01*
X150231934Y-121266500D01*
X150211680Y-121266500D01*
X150191969Y-121264949D01*
X150186685Y-121264112D01*
X150171961Y-121261780D01*
X150164069Y-121262526D01*
X150127943Y-121265941D01*
X150116085Y-121266500D01*
X146143200Y-121266500D01*
X146075079Y-121246498D01*
X146055853Y-121230157D01*
X146055580Y-121230460D01*
X146050668Y-121226037D01*
X146046253Y-121221134D01*
X145972212Y-121167340D01*
X145897094Y-121112763D01*
X145897093Y-121112762D01*
X145891752Y-121108882D01*
X145885724Y-121106198D01*
X145885722Y-121106197D01*
X145723319Y-121033891D01*
X145723318Y-121033891D01*
X145717288Y-121031206D01*
X145623888Y-121011353D01*
X145536944Y-120992872D01*
X145536939Y-120992872D01*
X145530487Y-120991500D01*
X145339513Y-120991500D01*
X145333061Y-120992872D01*
X145333056Y-120992872D01*
X145246112Y-121011353D01*
X145152712Y-121031206D01*
X145146682Y-121033891D01*
X145146681Y-121033891D01*
X144984278Y-121106197D01*
X144984276Y-121106198D01*
X144978248Y-121108882D01*
X144972907Y-121112762D01*
X144972906Y-121112763D01*
X144947262Y-121131395D01*
X144823747Y-121221134D01*
X144819326Y-121226044D01*
X144819325Y-121226045D01*
X144710203Y-121347238D01*
X144695960Y-121363056D01*
X144600473Y-121528444D01*
X144541458Y-121710072D01*
X144521496Y-121900000D01*
X144522186Y-121906565D01*
X144539231Y-122068735D01*
X144541458Y-122089928D01*
X144600473Y-122271556D01*
X144603776Y-122277278D01*
X144603777Y-122277279D01*
X144623738Y-122311852D01*
X144695960Y-122436944D01*
X144700378Y-122441851D01*
X144700379Y-122441852D01*
X144725396Y-122469636D01*
X144823747Y-122578866D01*
X144908119Y-122640166D01*
X144965766Y-122682049D01*
X144978248Y-122691118D01*
X144984276Y-122693802D01*
X144984278Y-122693803D01*
X145146681Y-122766109D01*
X145152712Y-122768794D01*
X145238962Y-122787127D01*
X145333056Y-122807128D01*
X145333061Y-122807128D01*
X145339513Y-122808500D01*
X145530487Y-122808500D01*
X145545543Y-122805300D01*
X145592139Y-122795396D01*
X145662930Y-122800798D01*
X145719562Y-122843616D01*
X145738168Y-122879706D01*
X145760878Y-122949599D01*
X145775973Y-122996056D01*
X145871460Y-123161444D01*
X145875878Y-123166351D01*
X145875879Y-123166352D01*
X145963174Y-123263303D01*
X145999247Y-123303366D01*
X146153748Y-123415618D01*
X146159776Y-123418302D01*
X146159778Y-123418303D01*
X146258135Y-123462094D01*
X146328212Y-123493294D01*
X146421612Y-123513147D01*
X146508556Y-123531628D01*
X146508561Y-123531628D01*
X146515013Y-123533000D01*
X146705987Y-123533000D01*
X146743016Y-123525129D01*
X146813806Y-123530532D01*
X146870438Y-123573349D01*
X146889044Y-123609440D01*
X146925473Y-123721556D01*
X147020960Y-123886944D01*
X147025378Y-123891851D01*
X147025379Y-123891852D01*
X147107017Y-123982520D01*
X147148747Y-124028866D01*
X147303248Y-124141118D01*
X147309276Y-124143802D01*
X147309278Y-124143803D01*
X147446638Y-124204959D01*
X147477712Y-124218794D01*
X147571113Y-124238647D01*
X147658056Y-124257128D01*
X147658061Y-124257128D01*
X147664513Y-124258500D01*
X147855487Y-124258500D01*
X147861939Y-124257128D01*
X147861944Y-124257128D01*
X147926296Y-124243449D01*
X147997087Y-124248851D01*
X148053719Y-124291668D01*
X148078213Y-124358305D01*
X148067600Y-124417943D01*
X148065914Y-124421730D01*
X148062615Y-124427444D01*
X148034195Y-124514912D01*
X148027542Y-124535387D01*
X147987468Y-124593992D01*
X147922071Y-124621629D01*
X147881511Y-124619696D01*
X147865879Y-124616373D01*
X147865870Y-124616372D01*
X147859415Y-124615000D01*
X147668441Y-124615000D01*
X147661989Y-124616372D01*
X147661984Y-124616372D01*
X147575041Y-124634853D01*
X147481640Y-124654706D01*
X147475610Y-124657391D01*
X147475609Y-124657391D01*
X147313206Y-124729697D01*
X147313204Y-124729698D01*
X147307176Y-124732382D01*
X147152675Y-124844634D01*
X147148254Y-124849544D01*
X147148253Y-124849545D01*
X147044809Y-124964432D01*
X147024888Y-124986556D01*
X146985103Y-125055465D01*
X146941094Y-125131692D01*
X146929401Y-125151944D01*
X146901644Y-125237371D01*
X146893720Y-125261758D01*
X146853646Y-125320363D01*
X146788249Y-125348000D01*
X146747688Y-125346067D01*
X146732662Y-125342873D01*
X146732659Y-125342873D01*
X146726201Y-125341500D01*
X146535227Y-125341500D01*
X146528775Y-125342872D01*
X146528770Y-125342872D01*
X146441831Y-125361352D01*
X146348426Y-125381206D01*
X146342396Y-125383891D01*
X146342395Y-125383891D01*
X146179992Y-125456197D01*
X146179990Y-125456198D01*
X146173962Y-125458882D01*
X146019461Y-125571134D01*
X145891674Y-125713056D01*
X145796187Y-125878444D01*
X145791012Y-125894370D01*
X145757163Y-125998547D01*
X145717089Y-126057152D01*
X145651692Y-126084789D01*
X145611133Y-126082857D01*
X145599444Y-126080372D01*
X145599440Y-126080372D01*
X145592987Y-126079000D01*
X145402013Y-126079000D01*
X145395561Y-126080372D01*
X145395556Y-126080372D01*
X145308612Y-126098853D01*
X145215212Y-126118706D01*
X145209182Y-126121391D01*
X145209181Y-126121391D01*
X145046778Y-126193697D01*
X145046776Y-126193698D01*
X145040748Y-126196382D01*
X144886247Y-126308634D01*
X144881826Y-126313544D01*
X144881825Y-126313545D01*
X144779130Y-126427600D01*
X144758460Y-126450556D01*
X144715144Y-126525581D01*
X144692419Y-126564943D01*
X144662973Y-126615944D01*
X144603958Y-126797572D01*
X144603268Y-126804133D01*
X144603268Y-126804135D01*
X144592902Y-126902763D01*
X144583996Y-126987500D01*
X144584686Y-126994065D01*
X144600881Y-127148148D01*
X144603958Y-127177428D01*
X144662973Y-127359056D01*
X144758460Y-127524444D01*
X144886247Y-127666366D01*
X145040748Y-127778618D01*
X145046776Y-127781302D01*
X145046778Y-127781303D01*
X145158935Y-127831238D01*
X145213031Y-127877218D01*
X145216629Y-127889054D01*
X145281666Y-127872383D01*
X145303497Y-127875060D01*
X145395556Y-127894628D01*
X145395561Y-127894628D01*
X145402013Y-127896000D01*
X145592987Y-127896000D01*
X145599440Y-127894628D01*
X145599444Y-127894628D01*
X145619093Y-127890451D01*
X145689884Y-127895853D01*
X145746516Y-127938670D01*
X145765123Y-127974761D01*
X145800473Y-128083556D01*
X145895960Y-128248944D01*
X145900378Y-128253851D01*
X145900379Y-128253852D01*
X146000909Y-128365502D01*
X146023747Y-128390866D01*
X146178248Y-128503118D01*
X146184276Y-128505802D01*
X146184278Y-128505803D01*
X146346681Y-128578109D01*
X146352712Y-128580794D01*
X146429557Y-128597128D01*
X146533056Y-128619128D01*
X146533061Y-128619128D01*
X146539513Y-128620500D01*
X146730487Y-128620500D01*
X146736939Y-128619128D01*
X146736944Y-128619128D01*
X146840443Y-128597128D01*
X146917288Y-128580794D01*
X146923319Y-128578109D01*
X147085722Y-128505803D01*
X147085724Y-128505802D01*
X147091752Y-128503118D01*
X147122033Y-128481118D01*
X147240716Y-128394889D01*
X147246253Y-128390866D01*
X147250668Y-128385963D01*
X147255580Y-128381540D01*
X147256705Y-128382789D01*
X147310014Y-128349949D01*
X147343200Y-128345500D01*
X150039214Y-128345500D01*
X150107335Y-128365502D01*
X150128309Y-128382405D01*
X151181600Y-129435696D01*
X151215626Y-129498008D01*
X151218505Y-129524791D01*
X151218505Y-135012825D01*
X151198503Y-135080946D01*
X151144847Y-135127439D01*
X151092505Y-135138825D01*
X151038871Y-135138825D01*
X150976689Y-135145580D01*
X150840300Y-135196710D01*
X150782153Y-135240289D01*
X150715647Y-135265137D01*
X150646264Y-135250084D01*
X150631023Y-135240289D01*
X150580653Y-135202539D01*
X150565059Y-135194001D01*
X150444611Y-135148847D01*
X150429356Y-135145220D01*
X150378491Y-135139694D01*
X150371677Y-135139325D01*
X149709120Y-135139325D01*
X149693881Y-135143800D01*
X149692676Y-135145190D01*
X149691005Y-135152873D01*
X149691005Y-138275325D01*
X149671003Y-138343446D01*
X149617347Y-138389939D01*
X149565005Y-138401325D01*
X146769005Y-138401325D01*
X146700884Y-138381323D01*
X146654391Y-138327667D01*
X146643005Y-138275325D01*
X146643005Y-137875210D01*
X147151005Y-137875210D01*
X147155480Y-137890449D01*
X147156870Y-137891654D01*
X147164553Y-137893325D01*
X149164890Y-137893325D01*
X149180129Y-137888850D01*
X149181334Y-137887460D01*
X149183005Y-137879777D01*
X149183005Y-135157441D01*
X149178530Y-135142202D01*
X149177140Y-135140997D01*
X149169457Y-135139326D01*
X148502336Y-135139326D01*
X148495515Y-135139696D01*
X148444653Y-135145220D01*
X148429401Y-135148846D01*
X148308951Y-135194001D01*
X148293356Y-135202539D01*
X148242570Y-135240601D01*
X148176063Y-135265449D01*
X148106681Y-135250396D01*
X148091440Y-135240601D01*
X148040654Y-135202539D01*
X148025059Y-135194001D01*
X147904611Y-135148847D01*
X147889356Y-135145220D01*
X147838491Y-135139694D01*
X147831677Y-135139325D01*
X147169120Y-135139325D01*
X147153881Y-135143800D01*
X147152676Y-135145190D01*
X147151005Y-135152873D01*
X147151005Y-137875210D01*
X146643005Y-137875210D01*
X146643005Y-135157441D01*
X146638530Y-135142202D01*
X146637140Y-135140997D01*
X146629457Y-135139326D01*
X145962336Y-135139326D01*
X145955515Y-135139696D01*
X145904653Y-135145220D01*
X145889401Y-135148846D01*
X145768951Y-135194001D01*
X145753357Y-135202539D01*
X145702987Y-135240289D01*
X145636481Y-135265137D01*
X145567098Y-135250084D01*
X145551857Y-135240289D01*
X145493710Y-135196710D01*
X145357321Y-135145580D01*
X145295139Y-135138825D01*
X145213653Y-135138825D01*
X145145532Y-135118823D01*
X145099039Y-135065167D01*
X145088935Y-134994893D01*
X145118429Y-134930313D01*
X145173777Y-134893301D01*
X145228224Y-134875136D01*
X145268946Y-134861550D01*
X145419348Y-134768478D01*
X145475809Y-134711919D01*
X145539134Y-134648483D01*
X145544305Y-134643303D01*
X145548146Y-134637072D01*
X145633275Y-134498968D01*
X145633276Y-134498966D01*
X145637115Y-134492738D01*
X145679970Y-134363534D01*
X145690632Y-134331389D01*
X145690632Y-134331387D01*
X145692797Y-134324861D01*
X145693916Y-134313945D01*
X145701580Y-134239136D01*
X145703500Y-134220400D01*
X145703500Y-133269600D01*
X145703163Y-133266350D01*
X145693238Y-133170692D01*
X145693237Y-133170688D01*
X145692526Y-133163834D01*
X145681673Y-133131302D01*
X145638868Y-133003002D01*
X145636550Y-132996054D01*
X145543478Y-132845652D01*
X145418303Y-132720695D01*
X145412072Y-132716854D01*
X145355884Y-132682219D01*
X145308390Y-132629446D01*
X145296000Y-132574959D01*
X145296000Y-130415010D01*
X145316002Y-130346889D01*
X145355696Y-130307867D01*
X145419348Y-130268478D01*
X145431679Y-130256126D01*
X145539134Y-130148483D01*
X145544305Y-130143303D01*
X145637115Y-129992738D01*
X145675391Y-129877340D01*
X145690632Y-129831389D01*
X145690632Y-129831387D01*
X145692797Y-129824861D01*
X145703500Y-129720400D01*
X145703500Y-128769600D01*
X145703163Y-128766350D01*
X145693238Y-128670692D01*
X145693237Y-128670688D01*
X145692526Y-128663834D01*
X145672169Y-128602815D01*
X145641561Y-128511075D01*
X145636550Y-128496054D01*
X145543478Y-128345652D01*
X145418303Y-128220695D01*
X145267738Y-128127885D01*
X145237631Y-128117899D01*
X145179274Y-128077470D01*
X145169228Y-128053290D01*
X145161117Y-128060455D01*
X145094844Y-128071689D01*
X144995400Y-128061500D01*
X144159500Y-128061500D01*
X144091379Y-128041498D01*
X144044886Y-127987842D01*
X144033500Y-127935500D01*
X144033500Y-120684500D01*
X144053502Y-120616379D01*
X144107158Y-120569886D01*
X144159500Y-120558500D01*
X144213134Y-120558500D01*
X144275316Y-120551745D01*
X144411705Y-120500615D01*
X144469852Y-120457036D01*
X144536358Y-120432188D01*
X144605741Y-120447241D01*
X144620982Y-120457036D01*
X144671352Y-120494786D01*
X144686946Y-120503324D01*
X144807394Y-120548478D01*
X144822649Y-120552105D01*
X144873514Y-120557631D01*
X144880328Y-120558000D01*
X145542885Y-120558000D01*
X145558124Y-120553525D01*
X145559329Y-120552135D01*
X145561000Y-120544452D01*
X145561000Y-120539884D01*
X146069000Y-120539884D01*
X146073475Y-120555123D01*
X146074865Y-120556328D01*
X146082548Y-120557999D01*
X146749669Y-120557999D01*
X146756490Y-120557629D01*
X146807352Y-120552105D01*
X146822604Y-120548479D01*
X146943054Y-120503324D01*
X146958649Y-120494786D01*
X147009435Y-120456724D01*
X147075942Y-120431876D01*
X147145324Y-120446929D01*
X147160565Y-120456724D01*
X147211351Y-120494786D01*
X147226946Y-120503324D01*
X147347394Y-120548478D01*
X147362649Y-120552105D01*
X147413514Y-120557631D01*
X147420328Y-120558000D01*
X148082885Y-120558000D01*
X148098124Y-120553525D01*
X148099329Y-120552135D01*
X148101000Y-120544452D01*
X148101000Y-120539884D01*
X148609000Y-120539884D01*
X148613475Y-120555123D01*
X148614865Y-120556328D01*
X148622548Y-120557999D01*
X149289669Y-120557999D01*
X149296490Y-120557629D01*
X149347352Y-120552105D01*
X149362604Y-120548479D01*
X149483054Y-120503324D01*
X149498649Y-120494786D01*
X149549435Y-120456724D01*
X149615942Y-120431876D01*
X149685324Y-120446929D01*
X149700565Y-120456724D01*
X149751351Y-120494786D01*
X149766946Y-120503324D01*
X149887394Y-120548478D01*
X149902649Y-120552105D01*
X149953514Y-120557631D01*
X149960328Y-120558000D01*
X150622885Y-120558000D01*
X150638124Y-120553525D01*
X150639329Y-120552135D01*
X150641000Y-120544452D01*
X150641000Y-117822115D01*
X150636525Y-117806876D01*
X150635135Y-117805671D01*
X150627452Y-117804000D01*
X148627115Y-117804000D01*
X148611876Y-117808475D01*
X148610671Y-117809865D01*
X148609000Y-117817548D01*
X148609000Y-120539884D01*
X148101000Y-120539884D01*
X148101000Y-117822115D01*
X148096525Y-117806876D01*
X148095135Y-117805671D01*
X148087452Y-117804000D01*
X146087115Y-117804000D01*
X146071876Y-117808475D01*
X146070671Y-117809865D01*
X146069000Y-117817548D01*
X146069000Y-120539884D01*
X145561000Y-120539884D01*
X145561000Y-117422000D01*
X145581002Y-117353879D01*
X145634658Y-117307386D01*
X145687000Y-117296000D01*
X151023000Y-117296000D01*
X151091121Y-117316002D01*
X151137614Y-117369658D01*
X151149000Y-117422000D01*
X151149000Y-120539884D01*
X151153475Y-120555123D01*
X151154865Y-120556328D01*
X151162548Y-120557999D01*
X151829669Y-120557999D01*
X151836490Y-120557629D01*
X151887352Y-120552105D01*
X151902604Y-120548479D01*
X152023054Y-120503324D01*
X152038648Y-120494786D01*
X152089018Y-120457036D01*
X152155524Y-120432188D01*
X152224907Y-120447241D01*
X152240146Y-120457035D01*
X152298295Y-120500615D01*
X152434684Y-120551745D01*
X152496866Y-120558500D01*
X152675500Y-120558500D01*
X152743621Y-120578502D01*
X152790114Y-120632158D01*
X152801500Y-120684500D01*
X152801500Y-121087476D01*
X152781498Y-121155597D01*
X152769142Y-121171779D01*
X152695960Y-121253056D01*
X152661652Y-121312479D01*
X152606247Y-121408444D01*
X152600473Y-121418444D01*
X152541458Y-121600072D01*
X152540768Y-121606633D01*
X152540768Y-121606635D01*
X152529897Y-121710072D01*
X152521496Y-121790000D01*
X152541458Y-121979928D01*
X152600473Y-122161556D01*
X152695960Y-122326944D01*
X152700378Y-122331851D01*
X152700379Y-122331852D01*
X152801317Y-122443955D01*
X152823747Y-122468866D01*
X152853759Y-122490671D01*
X152959143Y-122567237D01*
X152978248Y-122581118D01*
X152984276Y-122583802D01*
X152984278Y-122583803D01*
X153133333Y-122650166D01*
X153152712Y-122658794D01*
X153238966Y-122677128D01*
X153333056Y-122697128D01*
X153333061Y-122697128D01*
X153339513Y-122698500D01*
X153530487Y-122698500D01*
X153536939Y-122697128D01*
X153536944Y-122697128D01*
X153631034Y-122677128D01*
X153717288Y-122658794D01*
X153736667Y-122650166D01*
X153885722Y-122583803D01*
X153885724Y-122583802D01*
X153891752Y-122581118D01*
X153910858Y-122567237D01*
X154016241Y-122490671D01*
X154046253Y-122468866D01*
X154068683Y-122443955D01*
X154169621Y-122331852D01*
X154169622Y-122331851D01*
X154174040Y-122326944D01*
X154269527Y-122161556D01*
X154328542Y-121979928D01*
X154348504Y-121790000D01*
X154340103Y-121710072D01*
X154329232Y-121606635D01*
X154329232Y-121606633D01*
X154328542Y-121600072D01*
X154269527Y-121418444D01*
X154263754Y-121408444D01*
X154208348Y-121312479D01*
X154174040Y-121253056D01*
X154100863Y-121171785D01*
X154070147Y-121107779D01*
X154068500Y-121087476D01*
X154068500Y-120684500D01*
X154088502Y-120616379D01*
X154142158Y-120569886D01*
X154194500Y-120558500D01*
X154373134Y-120558500D01*
X154435316Y-120551745D01*
X154571705Y-120500615D01*
X154629434Y-120457349D01*
X154695942Y-120432501D01*
X154765324Y-120447554D01*
X154780565Y-120457349D01*
X154838295Y-120500615D01*
X154974684Y-120551745D01*
X155036866Y-120558500D01*
X155215500Y-120558500D01*
X155283621Y-120578502D01*
X155330114Y-120632158D01*
X155341500Y-120684500D01*
X155341500Y-121098582D01*
X155321498Y-121166703D01*
X155309136Y-121182892D01*
X155258820Y-121238774D01*
X155245960Y-121253056D01*
X155211652Y-121312479D01*
X155156247Y-121408444D01*
X155150473Y-121418444D01*
X155091458Y-121600072D01*
X155090768Y-121606633D01*
X155090768Y-121606635D01*
X155079897Y-121710072D01*
X155071496Y-121790000D01*
X155091458Y-121979928D01*
X155150473Y-122161556D01*
X155245960Y-122326944D01*
X155250378Y-122331851D01*
X155250379Y-122331852D01*
X155351317Y-122443955D01*
X155373747Y-122468866D01*
X155403759Y-122490671D01*
X155509143Y-122567237D01*
X155528248Y-122581118D01*
X155534276Y-122583802D01*
X155534278Y-122583803D01*
X155683333Y-122650166D01*
X155702712Y-122658794D01*
X155788966Y-122677128D01*
X155883056Y-122697128D01*
X155883061Y-122697128D01*
X155889513Y-122698500D01*
X156080487Y-122698500D01*
X156086939Y-122697128D01*
X156086944Y-122697128D01*
X156181034Y-122677128D01*
X156267288Y-122658794D01*
X156286667Y-122650166D01*
X156435722Y-122583803D01*
X156435724Y-122583802D01*
X156441752Y-122581118D01*
X156460858Y-122567237D01*
X156566241Y-122490671D01*
X156596253Y-122468866D01*
X156618683Y-122443955D01*
X156719621Y-122331852D01*
X156719622Y-122331851D01*
X156724040Y-122326944D01*
X156819527Y-122161556D01*
X156878542Y-121979928D01*
X156898504Y-121790000D01*
X156890103Y-121710072D01*
X156879232Y-121606635D01*
X156879232Y-121606633D01*
X156878542Y-121600072D01*
X156819527Y-121418444D01*
X156813754Y-121408444D01*
X156729793Y-121263020D01*
X156724040Y-121253056D01*
X156711181Y-121238774D01*
X156640864Y-121160680D01*
X156610147Y-121096672D01*
X156608500Y-121076369D01*
X156608500Y-120684500D01*
X156628502Y-120616379D01*
X156682158Y-120569886D01*
X156734500Y-120558500D01*
X156913134Y-120558500D01*
X156975316Y-120551745D01*
X157111705Y-120500615D01*
X157169434Y-120457349D01*
X157235942Y-120432501D01*
X157305324Y-120447554D01*
X157320565Y-120457349D01*
X157378295Y-120500615D01*
X157514684Y-120551745D01*
X157576866Y-120558500D01*
X157755500Y-120558500D01*
X157823621Y-120578502D01*
X157870114Y-120632158D01*
X157881500Y-120684500D01*
X157881500Y-121077476D01*
X157861498Y-121145597D01*
X157849142Y-121161779D01*
X157775960Y-121243056D01*
X157748876Y-121289967D01*
X157686247Y-121398444D01*
X157680473Y-121408444D01*
X157621458Y-121590072D01*
X157601496Y-121780000D01*
X157621458Y-121969928D01*
X157680473Y-122151556D01*
X157683776Y-122157278D01*
X157683777Y-122157279D01*
X157689551Y-122167279D01*
X157775960Y-122316944D01*
X157780378Y-122321851D01*
X157780379Y-122321852D01*
X157890321Y-122443955D01*
X157903747Y-122458866D01*
X157947523Y-122490671D01*
X158039143Y-122557237D01*
X158058248Y-122571118D01*
X158064276Y-122573802D01*
X158064278Y-122573803D01*
X158213333Y-122640166D01*
X158232712Y-122648794D01*
X158326112Y-122668647D01*
X158413056Y-122687128D01*
X158413061Y-122687128D01*
X158419513Y-122688500D01*
X158610487Y-122688500D01*
X158616939Y-122687128D01*
X158616944Y-122687128D01*
X158703888Y-122668647D01*
X158797288Y-122648794D01*
X158816667Y-122640166D01*
X158965722Y-122573803D01*
X158965724Y-122573802D01*
X158971752Y-122571118D01*
X158990858Y-122557237D01*
X159082477Y-122490671D01*
X159126253Y-122458866D01*
X159139679Y-122443955D01*
X159249621Y-122321852D01*
X159249622Y-122321851D01*
X159254040Y-122316944D01*
X159340449Y-122167279D01*
X159346223Y-122157279D01*
X159346224Y-122157278D01*
X159349527Y-122151556D01*
X159408542Y-121969928D01*
X159428504Y-121780000D01*
X159408542Y-121590072D01*
X159349527Y-121408444D01*
X159343754Y-121398444D01*
X159281124Y-121289967D01*
X159254040Y-121243056D01*
X159180863Y-121161785D01*
X159150147Y-121097779D01*
X159148500Y-121077476D01*
X159148500Y-120684500D01*
X159168502Y-120616379D01*
X159222158Y-120569886D01*
X159274500Y-120558500D01*
X159453134Y-120558500D01*
X159515316Y-120551745D01*
X159651705Y-120500615D01*
X159709434Y-120457349D01*
X159775942Y-120432501D01*
X159845324Y-120447554D01*
X159860565Y-120457349D01*
X159918295Y-120500615D01*
X160054684Y-120551745D01*
X160116866Y-120558500D01*
X160295500Y-120558500D01*
X160363621Y-120578502D01*
X160410114Y-120632158D01*
X160421500Y-120684500D01*
X160421500Y-121077476D01*
X160401498Y-121145597D01*
X160389142Y-121161779D01*
X160315960Y-121243056D01*
X160288876Y-121289967D01*
X160226247Y-121398444D01*
X160220473Y-121408444D01*
X160161458Y-121590072D01*
X160141496Y-121780000D01*
X160161458Y-121969928D01*
X160220473Y-122151556D01*
X160223776Y-122157278D01*
X160223777Y-122157279D01*
X160229551Y-122167279D01*
X160315960Y-122316944D01*
X160320378Y-122321851D01*
X160320379Y-122321852D01*
X160430321Y-122443955D01*
X160443747Y-122458866D01*
X160487523Y-122490671D01*
X160579143Y-122557237D01*
X160598248Y-122571118D01*
X160604276Y-122573802D01*
X160604278Y-122573803D01*
X160753333Y-122640166D01*
X160772712Y-122648794D01*
X160866112Y-122668647D01*
X160953056Y-122687128D01*
X160953061Y-122687128D01*
X160959513Y-122688500D01*
X161150487Y-122688500D01*
X161156939Y-122687128D01*
X161156944Y-122687128D01*
X161243888Y-122668647D01*
X161337288Y-122648794D01*
X161356667Y-122640166D01*
X161505722Y-122573803D01*
X161505724Y-122573802D01*
X161511752Y-122571118D01*
X161530858Y-122557237D01*
X161622477Y-122490671D01*
X161666253Y-122458866D01*
X161679679Y-122443955D01*
X161789621Y-122321852D01*
X161789622Y-122321851D01*
X161794040Y-122316944D01*
X161880449Y-122167279D01*
X161886223Y-122157279D01*
X161886224Y-122157278D01*
X161889527Y-122151556D01*
X161948542Y-121969928D01*
X161968504Y-121780000D01*
X161948542Y-121590072D01*
X161889527Y-121408444D01*
X161883754Y-121398444D01*
X161821124Y-121289967D01*
X161794040Y-121243056D01*
X161720863Y-121161785D01*
X161690147Y-121097779D01*
X161688500Y-121077476D01*
X161688500Y-120684500D01*
X161708502Y-120616379D01*
X161762158Y-120569886D01*
X161814500Y-120558500D01*
X161993134Y-120558500D01*
X162055316Y-120551745D01*
X162191705Y-120500615D01*
X162249434Y-120457349D01*
X162315942Y-120432501D01*
X162385324Y-120447554D01*
X162400565Y-120457349D01*
X162458295Y-120500615D01*
X162594684Y-120551745D01*
X162656866Y-120558500D01*
X162835500Y-120558500D01*
X162903621Y-120578502D01*
X162950114Y-120632158D01*
X162961500Y-120684500D01*
X162961500Y-121077476D01*
X162941498Y-121145597D01*
X162929142Y-121161779D01*
X162855960Y-121243056D01*
X162828876Y-121289967D01*
X162766247Y-121398444D01*
X162760473Y-121408444D01*
X162701458Y-121590072D01*
X162681496Y-121780000D01*
X162701458Y-121969928D01*
X162760473Y-122151556D01*
X162763776Y-122157278D01*
X162763777Y-122157279D01*
X162769551Y-122167279D01*
X162855960Y-122316944D01*
X162860378Y-122321851D01*
X162860379Y-122321852D01*
X162970321Y-122443955D01*
X162983747Y-122458866D01*
X163027523Y-122490671D01*
X163119143Y-122557237D01*
X163138248Y-122571118D01*
X163144276Y-122573802D01*
X163144278Y-122573803D01*
X163293333Y-122640166D01*
X163312712Y-122648794D01*
X163406112Y-122668647D01*
X163493056Y-122687128D01*
X163493061Y-122687128D01*
X163499513Y-122688500D01*
X163690487Y-122688500D01*
X163696939Y-122687128D01*
X163696944Y-122687128D01*
X163783888Y-122668647D01*
X163877288Y-122648794D01*
X163896667Y-122640166D01*
X164045722Y-122573803D01*
X164045724Y-122573802D01*
X164051752Y-122571118D01*
X164070858Y-122557237D01*
X164162477Y-122490671D01*
X164206253Y-122458866D01*
X164219679Y-122443955D01*
X164329621Y-122321852D01*
X164329622Y-122321851D01*
X164334040Y-122316944D01*
X164420449Y-122167279D01*
X164426223Y-122157279D01*
X164426224Y-122157278D01*
X164429527Y-122151556D01*
X164488542Y-121969928D01*
X164508504Y-121780000D01*
X164488542Y-121590072D01*
X164429527Y-121408444D01*
X164423754Y-121398444D01*
X164361124Y-121289967D01*
X164334040Y-121243056D01*
X164260863Y-121161785D01*
X164230147Y-121097779D01*
X164228500Y-121077476D01*
X164228500Y-120684500D01*
X164248502Y-120616379D01*
X164302158Y-120569886D01*
X164354500Y-120558500D01*
X164533134Y-120558500D01*
X164595316Y-120551745D01*
X164731705Y-120500615D01*
X164789434Y-120457349D01*
X164855942Y-120432501D01*
X164925324Y-120447554D01*
X164940565Y-120457349D01*
X164998295Y-120500615D01*
X165134684Y-120551745D01*
X165196866Y-120558500D01*
X165375500Y-120558500D01*
X165443621Y-120578502D01*
X165490114Y-120632158D01*
X165501500Y-120684500D01*
X165501500Y-121067476D01*
X165481498Y-121135597D01*
X165469142Y-121151779D01*
X165395960Y-121233056D01*
X165378660Y-121263020D01*
X165309151Y-121383414D01*
X165300473Y-121398444D01*
X165241458Y-121580072D01*
X165221496Y-121770000D01*
X165241458Y-121959928D01*
X165300473Y-122141556D01*
X165303776Y-122147278D01*
X165303777Y-122147279D01*
X165308391Y-122155271D01*
X165395960Y-122306944D01*
X165400378Y-122311851D01*
X165400379Y-122311852D01*
X165519325Y-122443955D01*
X165523747Y-122448866D01*
X165621435Y-122519841D01*
X165663221Y-122550200D01*
X165678248Y-122561118D01*
X165684276Y-122563802D01*
X165684278Y-122563803D01*
X165821730Y-122625000D01*
X165852712Y-122638794D01*
X165946112Y-122658647D01*
X166033056Y-122677128D01*
X166033061Y-122677128D01*
X166039513Y-122678500D01*
X166230487Y-122678500D01*
X166236939Y-122677128D01*
X166236944Y-122677128D01*
X166323888Y-122658647D01*
X166417288Y-122638794D01*
X166448270Y-122625000D01*
X166585722Y-122563803D01*
X166585724Y-122563802D01*
X166591752Y-122561118D01*
X166606780Y-122550200D01*
X166648565Y-122519841D01*
X166746253Y-122448866D01*
X166750675Y-122443955D01*
X166869621Y-122311852D01*
X166869622Y-122311851D01*
X166874040Y-122306944D01*
X166961609Y-122155271D01*
X166966223Y-122147279D01*
X166966224Y-122147278D01*
X166969527Y-122141556D01*
X167028542Y-121959928D01*
X167048504Y-121770000D01*
X167028542Y-121580072D01*
X166969527Y-121398444D01*
X166960850Y-121383414D01*
X166891340Y-121263020D01*
X166874040Y-121233056D01*
X166800863Y-121151785D01*
X166770147Y-121087779D01*
X166768500Y-121067476D01*
X166768500Y-120684500D01*
X166788502Y-120616379D01*
X166842158Y-120569886D01*
X166894500Y-120558500D01*
X167073134Y-120558500D01*
X167135316Y-120551745D01*
X167271705Y-120500615D01*
X167329434Y-120457349D01*
X167395942Y-120432501D01*
X167465324Y-120447554D01*
X167480565Y-120457349D01*
X167538295Y-120500615D01*
X167674684Y-120551745D01*
X167736866Y-120558500D01*
X167915500Y-120558500D01*
X167983621Y-120578502D01*
X168030114Y-120632158D01*
X168041500Y-120684500D01*
X168041500Y-121067476D01*
X168021498Y-121135597D01*
X168009142Y-121151779D01*
X167935960Y-121233056D01*
X167918660Y-121263020D01*
X167849151Y-121383414D01*
X167840473Y-121398444D01*
X167781458Y-121580072D01*
X167761496Y-121770000D01*
X167781458Y-121959928D01*
X167840473Y-122141556D01*
X167843776Y-122147278D01*
X167843777Y-122147279D01*
X167848391Y-122155271D01*
X167935960Y-122306944D01*
X167940378Y-122311851D01*
X167940379Y-122311852D01*
X168059325Y-122443955D01*
X168063747Y-122448866D01*
X168161435Y-122519841D01*
X168203221Y-122550200D01*
X168218248Y-122561118D01*
X168224276Y-122563802D01*
X168224278Y-122563803D01*
X168361730Y-122625000D01*
X168392712Y-122638794D01*
X168486112Y-122658647D01*
X168573056Y-122677128D01*
X168573061Y-122677128D01*
X168579513Y-122678500D01*
X168770487Y-122678500D01*
X168776939Y-122677128D01*
X168776944Y-122677128D01*
X168863888Y-122658647D01*
X168957288Y-122638794D01*
X168988270Y-122625000D01*
X169125722Y-122563803D01*
X169125724Y-122563802D01*
X169131752Y-122561118D01*
X169146780Y-122550200D01*
X169188565Y-122519841D01*
X169286253Y-122448866D01*
X169290675Y-122443955D01*
X169409621Y-122311852D01*
X169409622Y-122311851D01*
X169414040Y-122306944D01*
X169501609Y-122155271D01*
X169506223Y-122147279D01*
X169506224Y-122147278D01*
X169509527Y-122141556D01*
X169568542Y-121959928D01*
X169588504Y-121770000D01*
X169568542Y-121580072D01*
X169509527Y-121398444D01*
X169500850Y-121383414D01*
X169431340Y-121263020D01*
X169414040Y-121233056D01*
X169340863Y-121151785D01*
X169310147Y-121087779D01*
X169308500Y-121067476D01*
X169308500Y-120684500D01*
X169328502Y-120616379D01*
X169382158Y-120569886D01*
X169434500Y-120558500D01*
X169613134Y-120558500D01*
X169675316Y-120551745D01*
X169811705Y-120500615D01*
X169869434Y-120457349D01*
X169935942Y-120432501D01*
X170005324Y-120447554D01*
X170020565Y-120457349D01*
X170078295Y-120500615D01*
X170214684Y-120551745D01*
X170276866Y-120558500D01*
X170470500Y-120558500D01*
X170538621Y-120578502D01*
X170585114Y-120632158D01*
X170596500Y-120684500D01*
X170596500Y-121083029D01*
X170576498Y-121151150D01*
X170564142Y-121167333D01*
X170495960Y-121243056D01*
X170468876Y-121289967D01*
X170406247Y-121398444D01*
X170400473Y-121408444D01*
X170341458Y-121590072D01*
X170321496Y-121780000D01*
X170341458Y-121969928D01*
X170400473Y-122151556D01*
X170403776Y-122157278D01*
X170403777Y-122157279D01*
X170409551Y-122167279D01*
X170495960Y-122316944D01*
X170500378Y-122321851D01*
X170500379Y-122321852D01*
X170610321Y-122443955D01*
X170623747Y-122458866D01*
X170667523Y-122490671D01*
X170759143Y-122557237D01*
X170778248Y-122571118D01*
X170784276Y-122573802D01*
X170784278Y-122573803D01*
X170933333Y-122640166D01*
X170952712Y-122648794D01*
X171046112Y-122668647D01*
X171133056Y-122687128D01*
X171133061Y-122687128D01*
X171139513Y-122688500D01*
X171330487Y-122688500D01*
X171336939Y-122687128D01*
X171336944Y-122687128D01*
X171423888Y-122668647D01*
X171517288Y-122648794D01*
X171536667Y-122640166D01*
X171685722Y-122573803D01*
X171685724Y-122573802D01*
X171691752Y-122571118D01*
X171710858Y-122557237D01*
X171802477Y-122490671D01*
X171846253Y-122458866D01*
X171859679Y-122443955D01*
X171969621Y-122321852D01*
X171969622Y-122321851D01*
X171974040Y-122316944D01*
X172060449Y-122167279D01*
X172066223Y-122157279D01*
X172066224Y-122157278D01*
X172069527Y-122151556D01*
X172128542Y-121969928D01*
X172148504Y-121780000D01*
X172128542Y-121590072D01*
X172069527Y-121408444D01*
X172063754Y-121398444D01*
X172001124Y-121289967D01*
X171974040Y-121243056D01*
X171895863Y-121156231D01*
X171865147Y-121092226D01*
X171863500Y-121071923D01*
X171863500Y-120684500D01*
X171883502Y-120616379D01*
X171937158Y-120569886D01*
X171989500Y-120558500D01*
X172153134Y-120558500D01*
X172215316Y-120551745D01*
X172351705Y-120500615D01*
X172409434Y-120457349D01*
X172475942Y-120432501D01*
X172545324Y-120447554D01*
X172560565Y-120457349D01*
X172618295Y-120500615D01*
X172754684Y-120551745D01*
X172816866Y-120558500D01*
X172995500Y-120558500D01*
X173063621Y-120578502D01*
X173110114Y-120632158D01*
X173121500Y-120684500D01*
X173121500Y-121087476D01*
X173101498Y-121155597D01*
X173089142Y-121171779D01*
X173015960Y-121253056D01*
X172981652Y-121312479D01*
X172926247Y-121408444D01*
X172920473Y-121418444D01*
X172861458Y-121600072D01*
X172860768Y-121606633D01*
X172860768Y-121606635D01*
X172849897Y-121710072D01*
X172841496Y-121790000D01*
X172861458Y-121979928D01*
X172920473Y-122161556D01*
X173015960Y-122326944D01*
X173020378Y-122331851D01*
X173020379Y-122331852D01*
X173121317Y-122443955D01*
X173143747Y-122468866D01*
X173173759Y-122490671D01*
X173279143Y-122567237D01*
X173298248Y-122581118D01*
X173304276Y-122583802D01*
X173304278Y-122583803D01*
X173453333Y-122650166D01*
X173472712Y-122658794D01*
X173558966Y-122677128D01*
X173653056Y-122697128D01*
X173653061Y-122697128D01*
X173659513Y-122698500D01*
X173850487Y-122698500D01*
X173856939Y-122697128D01*
X173856944Y-122697128D01*
X173951034Y-122677128D01*
X174037288Y-122658794D01*
X174056667Y-122650166D01*
X174205722Y-122583803D01*
X174205724Y-122583802D01*
X174211752Y-122581118D01*
X174230858Y-122567237D01*
X174336241Y-122490671D01*
X174366253Y-122468866D01*
X174388683Y-122443955D01*
X174489621Y-122331852D01*
X174489622Y-122331851D01*
X174494040Y-122326944D01*
X174589527Y-122161556D01*
X174648542Y-121979928D01*
X174668504Y-121790000D01*
X174660103Y-121710072D01*
X174649232Y-121606635D01*
X174649232Y-121606633D01*
X174648542Y-121600072D01*
X174589527Y-121418444D01*
X174583754Y-121408444D01*
X174528348Y-121312479D01*
X174494040Y-121253056D01*
X174420863Y-121171785D01*
X174390147Y-121107779D01*
X174388500Y-121087476D01*
X174388500Y-120684500D01*
X174408502Y-120616379D01*
X174462158Y-120569886D01*
X174514500Y-120558500D01*
X174693134Y-120558500D01*
X174755316Y-120551745D01*
X174891705Y-120500615D01*
X175008261Y-120413261D01*
X175095615Y-120296705D01*
X175146745Y-120160316D01*
X175153500Y-120098134D01*
X175153500Y-115234500D01*
X175173502Y-115166379D01*
X175227158Y-115119886D01*
X175279500Y-115108500D01*
X176185633Y-115108500D01*
X176205018Y-115110000D01*
G37*
%TD.AperFunction*%
%TA.AperFunction,Conductor*%
G36*
X163860626Y-133308907D02*
G01*
X163907119Y-133362563D01*
X163918505Y-133414905D01*
X163918505Y-135012825D01*
X163898503Y-135080946D01*
X163844847Y-135127439D01*
X163792505Y-135138825D01*
X163738871Y-135138825D01*
X163676689Y-135145580D01*
X163540300Y-135196710D01*
X163533115Y-135202095D01*
X163533113Y-135202096D01*
X163482570Y-135239976D01*
X163416063Y-135264824D01*
X163346681Y-135249771D01*
X163331440Y-135239976D01*
X163280897Y-135202096D01*
X163280895Y-135202095D01*
X163273710Y-135196710D01*
X163137321Y-135145580D01*
X163075139Y-135138825D01*
X162771505Y-135138825D01*
X162703384Y-135118823D01*
X162656891Y-135065167D01*
X162645505Y-135012825D01*
X162645505Y-133414905D01*
X162665507Y-133346784D01*
X162719163Y-133300291D01*
X162771505Y-133288905D01*
X163792505Y-133288905D01*
X163860626Y-133308907D01*
G37*
%TD.AperFunction*%
%TA.AperFunction,Conductor*%
G36*
X152694017Y-130312849D02*
G01*
X152700599Y-130318977D01*
X154485073Y-132103452D01*
X156261600Y-133879979D01*
X156295626Y-133942291D01*
X156298505Y-133969074D01*
X156298505Y-135012825D01*
X156278503Y-135080946D01*
X156224847Y-135127439D01*
X156172505Y-135138825D01*
X156118871Y-135138825D01*
X156056689Y-135145580D01*
X155920300Y-135196710D01*
X155913115Y-135202095D01*
X155913113Y-135202096D01*
X155862570Y-135239976D01*
X155796063Y-135264824D01*
X155726681Y-135249771D01*
X155711440Y-135239976D01*
X155660897Y-135202096D01*
X155660895Y-135202095D01*
X155653710Y-135196710D01*
X155517321Y-135145580D01*
X155455139Y-135138825D01*
X153578871Y-135138825D01*
X153516689Y-135145580D01*
X153380300Y-135196710D01*
X153373115Y-135202095D01*
X153373113Y-135202096D01*
X153322570Y-135239976D01*
X153256063Y-135264824D01*
X153186681Y-135249771D01*
X153171440Y-135239976D01*
X153120897Y-135202096D01*
X153120895Y-135202095D01*
X153113710Y-135196710D01*
X152977321Y-135145580D01*
X152915139Y-135138825D01*
X152611505Y-135138825D01*
X152543384Y-135118823D01*
X152496891Y-135065167D01*
X152485505Y-135012825D01*
X152485505Y-130408073D01*
X152505507Y-130339952D01*
X152559163Y-130293459D01*
X152629437Y-130283355D01*
X152694017Y-130312849D01*
G37*
%TD.AperFunction*%
%TA.AperFunction,Conductor*%
G36*
X158780626Y-134207947D02*
G01*
X158827119Y-134261603D01*
X158838505Y-134313945D01*
X158838505Y-135012825D01*
X158818503Y-135080946D01*
X158764847Y-135127439D01*
X158712505Y-135138825D01*
X158658871Y-135138825D01*
X158596689Y-135145580D01*
X158460300Y-135196710D01*
X158453115Y-135202095D01*
X158453113Y-135202096D01*
X158402570Y-135239976D01*
X158336063Y-135264824D01*
X158266681Y-135249771D01*
X158251440Y-135239976D01*
X158200897Y-135202096D01*
X158200895Y-135202095D01*
X158193710Y-135196710D01*
X158057321Y-135145580D01*
X157995139Y-135138825D01*
X157691505Y-135138825D01*
X157623384Y-135118823D01*
X157576891Y-135065167D01*
X157565505Y-135012825D01*
X157565505Y-134313945D01*
X157585507Y-134245824D01*
X157639163Y-134199331D01*
X157691505Y-134187945D01*
X158712505Y-134187945D01*
X158780626Y-134207947D01*
G37*
%TD.AperFunction*%
%TA.AperFunction,Conductor*%
G36*
X170545532Y-131510827D02*
G01*
X170566506Y-131527730D01*
X173964332Y-134925556D01*
X173998358Y-134987868D01*
X173993293Y-135058683D01*
X173950746Y-135115519D01*
X173888845Y-135139914D01*
X173878877Y-135140997D01*
X173836689Y-135145580D01*
X173700300Y-135196710D01*
X173693115Y-135202095D01*
X173693113Y-135202096D01*
X173642570Y-135239976D01*
X173576063Y-135264824D01*
X173506681Y-135249771D01*
X173491440Y-135239976D01*
X173440897Y-135202096D01*
X173440895Y-135202095D01*
X173433710Y-135196710D01*
X173297321Y-135145580D01*
X173235139Y-135138825D01*
X172931505Y-135138825D01*
X172863384Y-135118823D01*
X172816891Y-135065167D01*
X172805505Y-135012825D01*
X172805505Y-134666092D01*
X172806032Y-134654909D01*
X172807707Y-134647416D01*
X172805567Y-134579339D01*
X172805505Y-134575380D01*
X172805505Y-134547469D01*
X172805000Y-134543469D01*
X172804067Y-134531626D01*
X172802927Y-134495354D01*
X172802678Y-134487435D01*
X172797027Y-134467983D01*
X172793019Y-134448631D01*
X172791472Y-134436388D01*
X172790479Y-134428528D01*
X172787561Y-134421157D01*
X172774205Y-134387422D01*
X172770360Y-134376195D01*
X172766998Y-134364624D01*
X172758023Y-134333732D01*
X172753989Y-134326910D01*
X172753986Y-134326904D01*
X172747711Y-134316293D01*
X172739015Y-134298543D01*
X172734477Y-134287081D01*
X172734474Y-134287076D01*
X172731557Y-134279708D01*
X172708904Y-134248528D01*
X172705578Y-134243950D01*
X172699062Y-134234032D01*
X172680580Y-134202782D01*
X172676547Y-134195962D01*
X172662223Y-134181638D01*
X172649381Y-134166603D01*
X172645558Y-134161341D01*
X172637477Y-134150218D01*
X172603411Y-134122036D01*
X172594632Y-134114047D01*
X170186505Y-131705920D01*
X170152479Y-131643608D01*
X170157544Y-131572793D01*
X170200091Y-131515957D01*
X170266611Y-131491146D01*
X170275600Y-131490825D01*
X170477411Y-131490825D01*
X170545532Y-131510827D01*
G37*
%TD.AperFunction*%
%TA.AperFunction,Conductor*%
G36*
X165394017Y-133605695D02*
G01*
X165400600Y-133611824D01*
X166421600Y-134632824D01*
X166455626Y-134695136D01*
X166458505Y-134721919D01*
X166458505Y-135012825D01*
X166438503Y-135080946D01*
X166384847Y-135127439D01*
X166332505Y-135138825D01*
X166278871Y-135138825D01*
X166216689Y-135145580D01*
X166080300Y-135196710D01*
X166073115Y-135202095D01*
X166073113Y-135202096D01*
X166022570Y-135239976D01*
X165956063Y-135264824D01*
X165886681Y-135249771D01*
X165871440Y-135239976D01*
X165820897Y-135202096D01*
X165820895Y-135202095D01*
X165813710Y-135196710D01*
X165677321Y-135145580D01*
X165615139Y-135138825D01*
X165311505Y-135138825D01*
X165243384Y-135118823D01*
X165196891Y-135065167D01*
X165185505Y-135012825D01*
X165185505Y-133700919D01*
X165205507Y-133632798D01*
X165259163Y-133586305D01*
X165329437Y-133576201D01*
X165394017Y-133605695D01*
G37*
%TD.AperFunction*%
%TA.AperFunction,Conductor*%
G36*
X166744572Y-132409867D02*
G01*
X166765546Y-132426770D01*
X168961600Y-134622824D01*
X168995626Y-134685136D01*
X168998505Y-134711919D01*
X168998505Y-135012825D01*
X168978503Y-135080946D01*
X168924847Y-135127439D01*
X168872505Y-135138825D01*
X168818871Y-135138825D01*
X168756689Y-135145580D01*
X168620300Y-135196710D01*
X168613115Y-135202095D01*
X168613113Y-135202096D01*
X168562570Y-135239976D01*
X168496063Y-135264824D01*
X168426681Y-135249771D01*
X168411440Y-135239976D01*
X168360897Y-135202096D01*
X168360895Y-135202095D01*
X168353710Y-135196710D01*
X168217321Y-135145580D01*
X168155139Y-135138825D01*
X167851505Y-135138825D01*
X167783384Y-135118823D01*
X167736891Y-135065167D01*
X167725505Y-135012825D01*
X167725505Y-134486092D01*
X167726032Y-134474909D01*
X167727707Y-134467416D01*
X167727117Y-134448631D01*
X167725567Y-134399339D01*
X167725505Y-134395380D01*
X167725505Y-134367469D01*
X167725000Y-134363469D01*
X167724067Y-134351626D01*
X167723940Y-134347562D01*
X167723011Y-134318022D01*
X167722927Y-134315354D01*
X167722678Y-134307435D01*
X167717027Y-134287983D01*
X167713019Y-134268631D01*
X167711472Y-134256388D01*
X167710479Y-134248528D01*
X167703602Y-134231158D01*
X167694205Y-134207422D01*
X167690360Y-134196195D01*
X167689111Y-134191897D01*
X167678023Y-134153732D01*
X167673989Y-134146910D01*
X167673986Y-134146904D01*
X167667711Y-134136293D01*
X167659015Y-134118543D01*
X167654477Y-134107081D01*
X167654474Y-134107076D01*
X167651557Y-134099708D01*
X167625578Y-134063950D01*
X167619062Y-134054032D01*
X167600580Y-134022782D01*
X167596547Y-134015962D01*
X167582223Y-134001638D01*
X167569381Y-133986603D01*
X167557477Y-133970218D01*
X167523411Y-133942036D01*
X167514632Y-133934047D01*
X166185545Y-132604960D01*
X166151519Y-132542648D01*
X166156584Y-132471833D01*
X166199131Y-132414997D01*
X166265651Y-132390186D01*
X166274640Y-132389865D01*
X166676451Y-132389865D01*
X166744572Y-132409867D01*
G37*
%TD.AperFunction*%
%TA.AperFunction,Conductor*%
G36*
X161320626Y-133758427D02*
G01*
X161367119Y-133812083D01*
X161378505Y-133864425D01*
X161378505Y-135012825D01*
X161358503Y-135080946D01*
X161304847Y-135127439D01*
X161252505Y-135138825D01*
X161198871Y-135138825D01*
X161136689Y-135145580D01*
X161000300Y-135196710D01*
X160993115Y-135202095D01*
X160993113Y-135202096D01*
X160942570Y-135239976D01*
X160876063Y-135264824D01*
X160806681Y-135249771D01*
X160791440Y-135239976D01*
X160740897Y-135202096D01*
X160740895Y-135202095D01*
X160733710Y-135196710D01*
X160597321Y-135145580D01*
X160535139Y-135138825D01*
X160231505Y-135138825D01*
X160163384Y-135118823D01*
X160116891Y-135065167D01*
X160105505Y-135012825D01*
X160105505Y-133864425D01*
X160125507Y-133796304D01*
X160179163Y-133749811D01*
X160231505Y-133738425D01*
X161252505Y-133738425D01*
X161320626Y-133758427D01*
G37*
%TD.AperFunction*%
%TA.AperFunction,Conductor*%
G36*
X168645052Y-131960347D02*
G01*
X168666026Y-131977250D01*
X171501600Y-134812824D01*
X171535626Y-134875136D01*
X171538505Y-134901919D01*
X171538505Y-135012825D01*
X171518503Y-135080946D01*
X171464847Y-135127439D01*
X171412505Y-135138825D01*
X171358871Y-135138825D01*
X171296689Y-135145580D01*
X171160300Y-135196710D01*
X171153115Y-135202095D01*
X171153113Y-135202096D01*
X171102570Y-135239976D01*
X171036063Y-135264824D01*
X170966681Y-135249771D01*
X170951440Y-135239976D01*
X170900897Y-135202096D01*
X170900895Y-135202095D01*
X170893710Y-135196710D01*
X170757321Y-135145580D01*
X170695139Y-135138825D01*
X170391505Y-135138825D01*
X170323384Y-135118823D01*
X170276891Y-135065167D01*
X170265505Y-135012825D01*
X170265505Y-134476088D01*
X170266032Y-134464904D01*
X170267706Y-134457416D01*
X170265567Y-134389357D01*
X170265505Y-134385400D01*
X170265505Y-134357469D01*
X170264999Y-134353463D01*
X170264066Y-134341617D01*
X170264058Y-134341341D01*
X170262678Y-134297435D01*
X170257027Y-134277983D01*
X170253019Y-134258631D01*
X170251473Y-134246393D01*
X170251472Y-134246391D01*
X170250479Y-134238528D01*
X170234199Y-134197411D01*
X170230364Y-134186210D01*
X170218023Y-134143731D01*
X170213990Y-134136912D01*
X170213988Y-134136907D01*
X170207712Y-134126296D01*
X170199015Y-134108546D01*
X170191557Y-134089708D01*
X170165576Y-134053948D01*
X170159058Y-134044026D01*
X170140583Y-134012785D01*
X170140579Y-134012780D01*
X170136547Y-134005962D01*
X170122223Y-133991638D01*
X170109381Y-133976603D01*
X170103911Y-133969074D01*
X170097477Y-133960218D01*
X170063411Y-133932036D01*
X170054632Y-133924047D01*
X168286025Y-132155440D01*
X168251999Y-132093128D01*
X168257064Y-132022313D01*
X168299611Y-131965477D01*
X168366131Y-131940666D01*
X168375120Y-131940345D01*
X168576931Y-131940345D01*
X168645052Y-131960347D01*
G37*
%TD.AperFunction*%
%TD*%
M02*
